<svg id="Layer_1" data-name="Layer 1" xmlns="http://www.w3.org/2000/svg" width="5.16in" height="0.31in" viewBox="0 0 371.5 22.55">
  <defs>
    <style>
      .cls-1 {
        fill: #fff;
      }
    </style>
  </defs>
  <title>footer-logo</title>
  <path class="cls-1" d="M12.11,28.23a11,11,0,0,1-3.48-8.52,11.49,11.49,0,0,1,3.22-7.86c1.72-1.72,4.34-3.07,8.77-3.07a24.42,24.42,0,0,1,4.17.34,22.22,22.22,0,0,0,2.94.43c.31,0,.37.15.37.32s-.08.58-.14,1.61-.06,2.53-.09,3-.09.61-.26.61-.23-.2-.23-.61a4,4,0,0,0-1.21-2.93,9.57,9.57,0,0,0-5.75-1.64C16.6,9.87,14.81,11,13.8,12c-2.1,2-2.58,4.57-2.58,7.51A10.39,10.39,0,0,0,21.6,30c2.16,0,3.86-.26,5-1.44a5.54,5.54,0,0,0,1.06-2.42c.06-.31.11-.43.29-.43s.2.2.2.43a30.67,30.67,0,0,1-.63,3.68c-.18.55-.23.61-.75.84a16.69,16.69,0,0,1-5.18.66c-4.31,0-7.22-1.06-9.49-3.1" transform="translate(-8.63 -8.78)"/>
  <path class="cls-1" d="M37.48,22.64c0,4.23.12,6.07.63,6.59s1.21.66,3.46.66c1.52,0,2.79,0,3.48-.86a4.1,4.1,0,0,0,.75-1.73c0-.23.08-.37.25-.37s.18.11.18.43a18.41,18.41,0,0,1-.43,2.88c-.21.66-.29.77-1.82.77-4.14,0-6-.17-7.71-.17-.11,0-.6,0-1.18,0s-1.21.06-1.64.06S33,30.87,33,30.7s.06-.17.23-.17a4.34,4.34,0,0,0,.87-.12c.57-.11.71-.75.83-1.58.14-1.21.14-3.48.14-6.24V17.52c0-4.49,0-5.29-.05-6.21s-.29-1.44-1.24-1.64a5.18,5.18,0,0,0-1-.09c-.11,0-.23-.05-.23-.17s.15-.23.46-.23c1.3,0,3.11.09,3.25.09s2.25-.09,3.11-.09c.32,0,.46.06.46.23s-.11.17-.23.17a6.57,6.57,0,0,0-1,.09c-.83.14-1.06.63-1.12,1.64s-.06,1.72-.06,6.21Z" transform="translate(-8.63 -8.78)"/>
  <path class="cls-1" d="M54.51,22.59c0,2.76,0,5,.15,6.24.08.83.25,1.47,1.12,1.58a11.59,11.59,0,0,0,1.29.11c.18,0,.23.09.23.18s-.14.23-.46.23c-1.58,0-3.39-.09-3.54-.09s-1.95.09-2.82.09c-.31,0-.46-.06-.46-.23s.06-.18.24-.18a4.31,4.31,0,0,0,.86-.11c.57-.11.72-.75.83-1.58.15-1.21.15-3.48.15-6.24V17.52c0-4.49,0-5.29-.06-6.21s-.35-1.47-1-1.61a3.64,3.64,0,0,0-.89-.12c-.12,0-.23-.06-.23-.17s.14-.23.46-.23c1,0,2.76.09,2.9.09s2-.09,2.82-.09c.32,0,.46.06.46.23s-.11.17-.23.17a4.18,4.18,0,0,0-.72.09c-.77.14-1,.63-1.06,1.64s-.06,1.72-.06,6.21Z" transform="translate(-8.63 -8.78)"/>
  <path class="cls-1" d="M64.75,17.52c0-4.49,0-5.29,0-6.21s-.29-1.44-1.24-1.64a5.18,5.18,0,0,0-1-.09c-.12,0-.23-.05-.23-.17s.14-.23.46-.23c1.29,0,3.11.09,3.25.09.58,0,6.42,0,7.08,0a6,6,0,0,0,1.26-.12c.18,0,.29-.17.41-.17s.17.12.17.26-.14.55-.23,1.35c0,.29-.09,1.55-.14,1.9,0,.14-.09.32-.24.32s-.2-.15-.2-.35a2.92,2.92,0,0,0-.26-1.09,2.17,2.17,0,0,0-2-.92l-4.43-.09c-.17,0-.26.09-.26.32v7.94c0,.17,0,.25.2.25l3.68,0c.49,0,.89,0,1.3,0,.69-.06,1.06-.15,1.32-.52.12-.14.2-.29.32-.29s.14.09.14.23-.14.66-.23,1.62c-.06.57-.11,1.72-.11,1.92s0,.55-.21.55-.2-.12-.2-.26a4.51,4.51,0,0,0-.17-1,1.71,1.71,0,0,0-1.5-1c-.72-.09-3.85-.09-4.34-.09-.14,0-.2.06-.2.26v2.45c0,2.76,0,5,.14,6.24.09.83.26,1.47,1.13,1.58a11.89,11.89,0,0,0,1.29.12c.17,0,.23.08.23.17s-.14.23-.46.23c-1.58,0-3.4-.09-3.54-.09s-2,.09-2.82.09c-.31,0-.46-.06-.46-.23s.06-.17.23-.17a4.14,4.14,0,0,0,.86-.12c.58-.11.72-.75.84-1.58.14-1.21.14-3.48.14-6.24Z" transform="translate(-8.63 -8.78)"/>
  <path class="cls-1" d="M81.78,17.52c0-4.49,0-5.29,0-6.21s-.29-1.44-1.24-1.64a5.18,5.18,0,0,0-1-.09c-.11,0-.23-.05-.23-.17s.15-.23.46-.23c1.3,0,3.11.09,3.25.09.58,0,6.42,0,7.08,0a6.08,6.08,0,0,0,1.27-.12c.17,0,.28-.17.4-.17s.17.12.17.26-.14.55-.23,1.35c0,.29-.08,1.55-.14,1.9,0,.14-.09.32-.23.32s-.2-.15-.2-.35a3.13,3.13,0,0,0-.26-1.09,2.2,2.2,0,0,0-2-.92l-4.43-.09c-.17,0-.26.09-.26.32v7.94c0,.17,0,.25.2.25l3.68,0c.49,0,.9,0,1.3,0,.69-.06,1.06-.15,1.32-.52.12-.14.2-.29.32-.29s.14.09.14.23-.14.66-.23,1.62c-.05.57-.11,1.72-.11,1.92s0,.55-.2.55-.2-.12-.2-.26a4.56,4.56,0,0,0-.18-1,1.71,1.71,0,0,0-1.49-1c-.72-.09-3.86-.09-4.35-.09-.14,0-.2.06-.2.26v2.45c0,2.76,0,5,.15,6.24.08.83.25,1.47,1.12,1.58a11.89,11.89,0,0,0,1.29.12c.17,0,.23.08.23.17s-.14.23-.46.23c-1.58,0-3.39-.09-3.54-.09s-1.95.09-2.82.09c-.31,0-.46-.06-.46-.23s.06-.17.23-.17a4.34,4.34,0,0,0,.87-.12c.57-.11.72-.75.83-1.58.14-1.21.14-3.48.14-6.24Z" transform="translate(-8.63 -8.78)"/>
  <path class="cls-1" d="M106.87,8.78c6.47,0,11.31,4.08,11.31,10.78,0,6.45-4.55,11.77-11.48,11.77-7.89,0-11.16-6.13-11.16-11.31A11.13,11.13,0,0,1,106.87,8.78m.6,21.46c2.59,0,8-1.5,8-9.87,0-6.91-4.21-10.62-8.75-10.62-4.81,0-8.4,3.17-8.4,9.47,0,6.7,4,11,9.2,11" transform="translate(-8.63 -8.78)"/>
  <path class="cls-1" d="M124.28,17.52c0-4.49,0-5.29-.06-6.21s-.28-1.44-1.23-1.64a5.18,5.18,0,0,0-1-.09c-.12,0-.23-.06-.23-.17s.14-.23.46-.23c1.29,0,3.11.08,3.25.08.32,0,2.5-.08,3.39-.08a8.89,8.89,0,0,1,5.27,1.26,5,5,0,0,1,2,3.92c0,2.13-.89,4.26-3.48,6.64,2.36,3,4.32,5.58,6,7.37a6,6,0,0,0,3.51,2.07,7.38,7.38,0,0,0,1.12.08c.14,0,.26.09.26.18s-.18.23-.69.23h-2.05a5.82,5.82,0,0,1-3.07-.55c-1.24-.66-2.25-2.07-3.89-4.23-1.21-1.58-2.56-3.51-3.13-4.26a.49.49,0,0,0-.38-.17l-3.54-.06c-.14,0-.2.09-.2.23v.7c0,2.76,0,5,.15,6.24.08.83.26,1.47,1.12,1.58a11.59,11.59,0,0,0,1.29.11c.18,0,.23.09.23.18s-.14.23-.46.23c-1.58,0-3.39-.09-3.54-.09s-1.84.09-2.7.09c-.32,0-.46-.06-.46-.23s.06-.18.23-.18a4.22,4.22,0,0,0,.86-.11c.58-.11.72-.75.84-1.58.14-1.21.14-3.48.14-6.24Zm2.3,2.5a.39.39,0,0,0,.2.35,8,8,0,0,0,3,.46,3.64,3.64,0,0,0,2.16-.55c1-.69,1.76-2.24,1.76-4.43,0-3.59-1.9-5.75-5-5.75a8.57,8.57,0,0,0-1.93.17.35.35,0,0,0-.23.35Z" transform="translate(-8.63 -8.78)"/>
  <path class="cls-1" d="M146,17.52c0-4.49,0-5.29-.06-6.21s-.28-1.44-1.23-1.64a5.18,5.18,0,0,0-1-.09c-.12,0-.23-.06-.23-.17s.14-.23.46-.23c1.3,0,3.11.09,3.25.09.35,0,2.16-.09,3.88-.09,2.85,0,8.12-.26,11.54,3.28a10.27,10.27,0,0,1,2.79,7.31,11.73,11.73,0,0,1-3.11,8.11c-1.23,1.29-3.82,3.31-8.71,3.31-2.48,0-6.1-.35-6.39-.35s-2,.09-2.82.09c-.31,0-.46-.06-.46-.23s.06-.18.23-.18a4.13,4.13,0,0,0,.86-.11c.58-.11.72-.75.84-1.58.14-1.21.14-3.48.14-6.24Zm2.42,3.11c0,3.05,0,5.7.06,6.24a6.37,6.37,0,0,0,.31,2.19c.38.55,1.5,1.15,4.89,1.15a9.65,9.65,0,0,0,6.85-2.68c1.5-1.46,2.3-4.22,2.3-6.87A10.28,10.28,0,0,0,160,13.41c-2.7-2.85-6-3.25-9.41-3.25a7.49,7.49,0,0,0-1.87.2.51.51,0,0,0-.34.57c0,1,0,3.92,0,6.13Z" transform="translate(-8.63 -8.78)"/>
  <path class="cls-1" d="M184.12,22.64c0,4.23.12,6.07.63,6.59s1.21.66,3.46.66c1.52,0,2.79,0,3.47-.86a3.87,3.87,0,0,0,.75-1.73c0-.23.09-.37.26-.37s.18.11.18.43a17.5,17.5,0,0,1-.44,2.88c-.2.66-.28.77-1.81.77-4.14,0-6-.17-7.71-.17-.11,0-.6,0-1.18,0s-1.21.06-1.64.06-.46-.06-.46-.23.06-.17.23-.17a4.14,4.14,0,0,0,.86-.12c.58-.11.73-.75.84-1.58.14-1.21.14-3.48.14-6.24V17.52c0-4.49,0-5.29,0-6.21s-.29-1.44-1.24-1.64a5.18,5.18,0,0,0-1-.09c-.12,0-.23-.05-.23-.17s.15-.23.46-.23c1.3,0,3.11.09,3.25.09s2.25-.09,3.11-.09c.32,0,.46.06.46.23s-.11.17-.23.17a6.57,6.57,0,0,0-.95.09c-.83.14-1.06.63-1.12,1.64s-.06,1.72-.06,6.21Z" transform="translate(-8.63 -8.78)"/>
  <path class="cls-1" d="M204.41,9.9c.35-1,.46-1.12.64-1.12s.28.14.63,1c.43,1.1,4.95,13,6.7,17.35,1,2.56,1.87,3,2.48,3.19a3.55,3.55,0,0,0,1.15.18c.17,0,.28,0,.28.17s-.25.23-.57.23-2.53,0-4.52-.06c-.54,0-.86,0-.86-.2s.09-.17.2-.2.35-.32.17-.78L208,22.62c-.06-.12-.11-.18-.26-.18h-6.19a.3.3,0,0,0-.28.23l-1.73,5.09a6,6,0,0,0-.4,1.93c0,.58.6.84,1.09.84h.29c.2,0,.28,0,.28.17s-.17.23-.43.23c-.69,0-1.92-.09-2.24-.09s-1.9.09-3.25.09c-.37,0-.55-.06-.55-.23s.12-.17.26-.17a8.3,8.3,0,0,0,.84-.06c1.32-.17,1.89-1.27,2.41-2.71Zm3,11.51c.14,0,.14-.09.11-.21l-2.73-7.76c-.15-.43-.29-.43-.44,0l-2.53,7.76c0,.15,0,.21.09.21Z" transform="translate(-8.63 -8.78)"/>
  <path class="cls-1" d="M235.7,27h.11c.78-2.65,3.43-11,4.43-14.67a6.43,6.43,0,0,0,.32-1.85c0-.51-.32-.86-1.64-.86-.14,0-.26-.08-.26-.2s.15-.2.49-.2c1.47,0,2.68.09,2.94.09s1.43-.09,2.33-.09c.25,0,.4.06.4.17s-.09.23-.26.23a3.63,3.63,0,0,0-1,.15c-.86.31-1.32,1.52-1.87,3.1-1.26,3.66-4.17,12.8-5.29,16-.75,2.13-.89,2.47-1.21,2.47s-.46-.37-.86-1.5l-5.64-16h-.06c-1,2.76-5,13.29-6,16-.46,1.2-.61,1.52-.95,1.52s-.44-.32-1-2.27L215.56,12c-.46-1.53-.84-2-1.58-2.25a4.92,4.92,0,0,0-1.3-.17c-.14,0-.26,0-.26-.2s.18-.2.46-.2c1.5,0,3.08.09,3.4.09s1.52-.09,3-.09c.4,0,.52.09.52.2s-.14.2-.29.2a2.83,2.83,0,0,0-1.12.17.76.76,0,0,0-.37.69,23.13,23.13,0,0,0,.54,2.65C219,14.93,222,25.49,222.38,27h.06l6.1-16.4c.43-1.18.54-1.33.71-1.33s.38.38.72,1.36Z" transform="translate(-8.63 -8.78)"/>
  <path class="cls-1" d="M266.91,8.78c6.47,0,11.31,4.08,11.31,10.78,0,6.45-4.55,11.77-11.48,11.77-7.88,0-11.16-6.13-11.16-11.31A11.13,11.13,0,0,1,266.91,8.78m.6,21.46c2.6,0,7.95-1.5,7.95-9.87,0-6.91-4.2-10.62-8.75-10.62-4.8,0-8.4,3.17-8.4,9.47,0,6.7,4,11,9.2,11" transform="translate(-8.63 -8.78)"/>
  <path class="cls-1" d="M284.32,17.52c0-4.49,0-5.29-.05-6.21S284,9.87,283,9.67a5.18,5.18,0,0,0-1-.09c-.11,0-.23-.05-.23-.17s.14-.23.46-.23c1.29,0,3.11.09,3.25.09.58,0,6.42,0,7.08,0a5.89,5.89,0,0,0,1.26-.12c.18,0,.29-.17.41-.17s.17.12.17.26-.15.55-.23,1.35c0,.29-.09,1.55-.14,1.9,0,.14-.09.32-.24.32s-.2-.15-.2-.35a2.92,2.92,0,0,0-.26-1.09,2.17,2.17,0,0,0-1.95-.92L287,10.33c-.17,0-.26.09-.26.32v7.94c0,.17,0,.25.2.25l3.68,0c.49,0,.89,0,1.3,0,.69-.06,1.06-.15,1.32-.52.11-.14.2-.29.32-.29s.14.09.14.23-.14.66-.23,1.62c-.06.57-.12,1.72-.12,1.92s0,.55-.19.55S293,22.18,293,22a4.51,4.51,0,0,0-.17-1,1.71,1.71,0,0,0-1.49-1c-.73-.09-3.86-.09-4.35-.09-.14,0-.2.06-.2.26v2.45c0,2.76,0,5,.14,6.24.09.83.26,1.47,1.13,1.58a11.89,11.89,0,0,0,1.29.12c.17,0,.23.08.23.17s-.15.23-.46.23c-1.59,0-3.4-.09-3.54-.09s-2,.09-2.82.09c-.31,0-.46-.06-.46-.23s.06-.17.23-.17a4.24,4.24,0,0,0,.86-.12c.58-.11.72-.75.84-1.58.14-1.21.14-3.48.14-6.24Z" transform="translate(-8.63 -8.78)"/>
  <path class="cls-1" d="M301.35,17.52c0-4.49,0-5.29-.06-6.21s-.28-1.44-1.23-1.64a5.18,5.18,0,0,0-1-.09c-.11,0-.23-.05-.23-.17s.14-.23.46-.23c1.29,0,3.11.09,3.25.09.58,0,6.42,0,7.08,0a5.89,5.89,0,0,0,1.26-.12c.18,0,.29-.17.41-.17s.17.12.17.26-.15.55-.23,1.35c0,.29-.09,1.55-.14,1.9,0,.14-.09.32-.24.32s-.2-.15-.2-.35a3.09,3.09,0,0,0-.25-1.09,2.2,2.2,0,0,0-2-.92L304,10.33c-.17,0-.26.09-.26.32v7.94c0,.17,0,.25.2.25l3.68,0c.49,0,.9,0,1.3,0,.69-.06,1.06-.15,1.32-.52.12-.14.2-.29.32-.29s.14.09.14.23-.14.66-.23,1.62c-.06.57-.11,1.72-.11,1.92s0,.55-.2.55S310,22.18,310,22a4.51,4.51,0,0,0-.17-1,1.71,1.71,0,0,0-1.49-1c-.72-.09-3.86-.09-4.35-.09-.14,0-.2.06-.2.26v2.45c0,2.76,0,5,.14,6.24.09.83.26,1.47,1.13,1.58a11.89,11.89,0,0,0,1.29.12c.17,0,.23.08.23.17s-.15.23-.46.23c-1.58,0-3.39-.09-3.54-.09s-2,.09-2.82.09c-.32,0-.46-.06-.46-.23s.06-.17.23-.17a4.14,4.14,0,0,0,.86-.12c.58-.11.72-.75.84-1.58.14-1.21.14-3.48.14-6.24Z" transform="translate(-8.63 -8.78)"/>
  <path class="cls-1" d="M320.8,22.59c0,2.76,0,5,.14,6.24.09.83.26,1.47,1.13,1.58a11.59,11.59,0,0,0,1.29.11c.17,0,.23.09.23.18s-.14.23-.46.23c-1.58,0-3.39-.09-3.54-.09s-1.95.09-2.82.09c-.31,0-.46-.06-.46-.23s.06-.18.23-.18a4.13,4.13,0,0,0,.86-.11c.58-.11.72-.75.84-1.58.14-1.21.14-3.48.14-6.24V17.52c0-4.49,0-5.29-.05-6.21s-.35-1.47-1-1.61a3.64,3.64,0,0,0-.89-.12c-.12,0-.23-.06-.23-.17s.14-.23.46-.23c.95,0,2.76.09,2.9.09s2-.09,2.82-.09c.32,0,.46.06.46.23s-.11.17-.23.17a4.18,4.18,0,0,0-.72.09c-.77.14-1,.63-1.06,1.64s-.06,1.72-.06,6.21Z" transform="translate(-8.63 -8.78)"/>
  <path class="cls-1" d="M330.82,28.23a11,11,0,0,1-3.49-8.52,11.51,11.51,0,0,1,3.23-7.86c1.72-1.72,4.34-3.07,8.77-3.07a24.5,24.5,0,0,1,4.17.34,22,22,0,0,0,2.94.43c.31,0,.37.15.37.32s-.09.58-.14,1.61-.06,2.53-.09,3-.09.61-.26.61-.23-.2-.23-.61a4,4,0,0,0-1.21-2.93,9.57,9.57,0,0,0-5.75-1.64c-3.83,0-5.61,1.12-6.62,2.1-2.1,2-2.59,4.57-2.59,7.51A10.39,10.39,0,0,0,340.31,30c2.16,0,3.86-.26,5-1.44a5.45,5.45,0,0,0,1.07-2.42c.06-.31.11-.43.29-.43s.2.2.2.43a29.17,29.17,0,0,1-.64,3.68c-.17.55-.22.61-.74.84a16.69,16.69,0,0,1-5.18.66c-4.32,0-7.22-1.06-9.49-3.1" transform="translate(-8.63 -8.78)"/>
  <path class="cls-1" d="M353.77,17.52c0-4.49,0-5.29-.06-6.21s-.28-1.44-1.23-1.64a5.18,5.18,0,0,0-1-.09c-.12,0-.23-.05-.23-.17s.14-.23.46-.23c1.29,0,3.11.09,3.25.09s5.93,0,6.59,0a7.07,7.07,0,0,0,1.23-.15c.15,0,.26-.14.41-.14s.11.12.11.26-.14.55-.23,1.35c0,.29-.08,1.55-.14,1.9,0,.14-.09.32-.2.32s-.23-.15-.23-.38a3.13,3.13,0,0,0-.17-1c-.21-.46-.49-.81-2.05-1-.49-.06-3.62-.09-3.94-.09-.11,0-.17.09-.17.29v7.94c0,.2,0,.29.17.29.38,0,3.91,0,4.58-.06s1.09-.12,1.35-.4.31-.38.43-.38.14.06.14.23-.14.66-.23,1.62c-.05.57-.11,1.64-.11,1.84s0,.54-.21.54-.19-.11-.19-.26A2.78,2.78,0,0,0,362,21c-.12-.41-.37-.9-1.5-1-.77-.09-3.62-.15-4.11-.15a.18.18,0,0,0-.2.2v2.54c0,1,0,4.31,0,4.92.09,2,.52,2.35,3.34,2.35a8.43,8.43,0,0,0,2.76-.31c.75-.32,1.09-.89,1.29-2.07.06-.32.12-.44.26-.44s.18.23.18.44-.24,2.18-.38,2.79-.43.74-1.55.74c-4.35,0-6.28-.17-7.11-.17-.06,0-.55,0-1.15,0s-1.24.06-1.67.06-.46-.06-.46-.23.06-.17.23-.17a4.24,4.24,0,0,0,.86-.12c.58-.11.72-.75.84-1.58.14-1.21.14-3.48.14-6.24Z" transform="translate(-8.63 -8.78)"/>
  <path class="cls-1" d="M369.48,30.55c-.4-.2-.43-.31-.43-1.09,0-1.44.11-2.59.14-3.05,0-.31.09-.46.23-.46s.2.09.2.32a4.81,4.81,0,0,0,.09,1.06c.43,2.13,2.33,2.94,4.26,2.94a3.84,3.84,0,0,0,4.11-3.83c0-2-.83-3.13-3.31-5.18l-1.29-1.06c-3.05-2.5-3.74-4.29-3.74-6.24,0-3.08,2.3-5.18,5.95-5.18a10.83,10.83,0,0,1,2.68.29,5,5,0,0,0,1,.14c.22,0,.28.06.28.2s-.11,1.09-.11,3.05c0,.46-.06.66-.2.66s-.2-.14-.23-.37a4.79,4.79,0,0,0-.38-1.44c-.17-.32-.95-1.53-3.59-1.53a3.27,3.27,0,0,0-3.54,3.34c0,1.64.8,2.62,3.51,4.84l.8.63c3.4,2.67,4.2,4.46,4.2,6.76a6,6,0,0,1-2.44,4.77,7.53,7.53,0,0,1-4.35,1.21,8.65,8.65,0,0,1-3.85-.78" transform="translate(-8.63 -8.78)"/>
  <path class="cls-1" d="M171.69,12.58a2.36,2.36,0,1,1-2.34-2.29,2.31,2.31,0,0,1,2.34,2.29m-4.13,0a1.79,1.79,0,0,0,1.79,1.84,1.76,1.76,0,0,0,1.75-1.82,1.77,1.77,0,1,0-3.54,0M169,13.77h-.53V11.48a5.88,5.88,0,0,1,.88-.07,1.26,1.26,0,0,1,.79.18.57.57,0,0,1,.23.49.58.58,0,0,1-.47.54v0c.22.07.33.25.4.56a2,2,0,0,0,.17.56h-.56a1.79,1.79,0,0,1-.18-.56c0-.24-.18-.35-.48-.35H169Zm0-1.29h.26c.29,0,.53-.09.53-.33s-.15-.35-.49-.35a1.05,1.05,0,0,0-.3,0Z" transform="translate(-8.63 -8.78)"/>
</svg>
