<svg id="Layer_1" data-name="Layer 1" xmlns="http://www.w3.org/2000/svg" viewBox="0 0 26.6 23.6">
  <defs>
    <style>
      .cls-1 {
        fill: #fff;
      }
    </style>
  </defs>
  <title>icon-phone</title>
  <g>
    <path class="cls-1" d="M26.6,7.1C26.6-.4,13.3,0,13.3,0S0-.4,0,7.1a3,3,0,0,0,3.2,3.3c3.6,0,3.2-2.5,3.2-3.9s2.2-3.1,6.9-3.1,6.9,1.7,6.9,3.1-.4,3.9,3.2,3.9A3,3,0,0,0,26.6,7.1Z" transform="translate(0 0)"/>
    <path class="cls-1" d="M20,11.1C17.9,10,18.2,9.4,18.2,9V7.8a1.32,1.32,0,0,0-1.3-1.3,1.16,1.16,0,0,0-1.2,1.2V9.5a.47.47,0,0,1-.5.5H11.4a.47.47,0,0,1-.5-.5V7.7A1.32,1.32,0,0,0,9.6,6.4,1.4,1.4,0,0,0,8.3,7.7V8.9c0,.3.3,1-1.8,2.1a10.43,10.43,0,0,0-5.2,9.5v1.8a1.32,1.32,0,0,0,1.3,1.3H24a1.32,1.32,0,0,0,1.3-1.3V20.5A10.23,10.23,0,0,0,20,11.1ZM13.1,22.2a4.5,4.5,0,1,1,4.5-4.5A4.55,4.55,0,0,1,13.1,22.2Z" transform="translate(0 0)"/>
    <circle class="cls-1" cx="13.1" cy="17.7" r="3"/>
  </g>
</svg>
