<svg version="1.1" id="stars" xmlns="http://www.w3.org/2000/svg" xmlns:xlink="http://www.w3.org/1999/xlink" x="0px" y="0px"
	 viewBox="0 0 204.8 36.2" style="enable-background:new 0 0 204.8 36.2;" xml:space="preserve">
<style type="text/css">
	.stars-st0{fill:#008A64;}
</style>
<g>
	<polygon class="stars-st0" points="144.1,28 132.3,36.2 136.6,22.5 125.1,13.8 139.4,13.6 144.1,0 148.8,13.6 163.1,13.8 151.7,22.5 
		155.9,36.2 	"/>
	<polygon class="stars-st0" points="185.8,28 174,36.2 178.2,22.5 166.8,13.8 181.1,13.6 185.8,0 190.5,13.6 204.8,13.8 193.4,22.5 
		197.6,36.2 	"/>
	<polygon class="stars-st0" points="60.7,28 49,36.2 53.2,22.5 41.7,13.8 56.1,13.6 60.7,0 65.4,13.6 79.8,13.8 68.3,22.5 72.5,36.2 	"/>
	<polygon class="stars-st0" points="102.4,28 90.7,36.2 94.9,22.5 83.4,13.8 97.7,13.6 102.4,0 107.1,13.6 121.4,13.8 110,22.5 
		114.2,36.2 	"/>
	<polygon class="stars-st0" points="19,28 7.3,36.2 11.5,22.5 0,13.8 14.4,13.6 19,0 23.7,13.6 38.1,13.8 26.6,22.5 30.8,36.2 	"/>
</g>
</svg>
