<svg id="Layer_1" data-name="Layer 1" xmlns="http://www.w3.org/2000/svg" width="10.27in" height="0.73in" viewBox="0 0 739.6 52.8">
  <defs>
    <style>
      .cls-1 {
        fill: #fff;
      }
    </style>
  </defs>
  <title>ilawyer-logo-white</title>
  <g>
    <path class="cls-1" d="M177.93,17.51h2.7v2.88c0,2.1-1.14,3.18-3.36,3.18h-2.7V20.69C174.57,18.59,175.71,17.51,177.93,17.51Zm-3.36,14.1c0-2.1,1.14-3.18,3.36-3.18h2.7V58.91h-2.7c-2.22,0-3.36-1.08-3.36-3.18Z" transform="translate(-20.91 -17.51)"/>
    <path class="cls-1" d="M196,52.73a4.35,4.35,0,0,0,2.89,1v2.76A2.29,2.29,0,0,1,197.07,59a3.94,3.94,0,0,1-3.06-.36,8.73,8.73,0,0,1-3.84-3.36,11.15,11.15,0,0,1-1.62-6.18V20.69c0-2.1,1.14-3.18,3.36-3.18h2.7V49.13A4.52,4.52,0,0,0,196,52.73Z" transform="translate(-20.91 -17.51)"/>
    <path class="cls-1" d="M227.18,31a11.39,11.39,0,0,1,4.5,9.12V58.91h-1.8a3.72,3.72,0,0,1-3.42-2.46,13.25,13.25,0,0,1-9.36,3.36A15.32,15.32,0,0,1,207,56.27a11.29,11.29,0,0,1-4.49-9.06V40.13A11.4,11.4,0,0,1,207,31a15.31,15.31,0,0,1,10.08-3.54A15.53,15.53,0,0,1,227.18,31ZM217.1,33.53a9.42,9.42,0,0,0-6.24,2.16,5.63,5.63,0,0,0-2.28,4.44v7.08a5.72,5.72,0,0,0,2.28,4.44,10.32,10.32,0,0,0,12.48,0,5.63,5.63,0,0,0,2.28-4.44V40.13a5.63,5.63,0,0,0-2.28-4.44A9.4,9.4,0,0,0,217.1,33.53Z" transform="translate(-20.91 -17.51)"/>
    <path class="cls-1" d="M275.3,31.61c0-2.1,1.14-3.18,3.36-3.18h2.7V47.21q0,5.85-3.24,9.18a12,12,0,0,1-9,3.42,11.66,11.66,0,0,1-9.18-3.9,11.83,11.83,0,0,1-9.18,3.9q-5.76,0-9-3.42t-3.24-9.18V31.61c0-2.1,1.14-3.18,3.36-3.18h2.7V47.21c0,2.28.54,4,1.56,5a6.13,6.13,0,0,0,4.62,1.56,6,6,0,0,0,4.44-1.62,6.81,6.81,0,0,0,1.68-4.92V31.61c0-2.1,1.14-3.18,3.36-3.18h2.7V47.21a6.83,6.83,0,0,0,1.74,4.92,6,6,0,0,0,4.44,1.62,6.22,6.22,0,0,0,4.62-1.56c1-1,1.56-2.7,1.56-5V31.61Z" transform="translate(-20.91 -17.51)"/>
    <path class="cls-1" d="M315.2,28.43,303.32,61.91c-.3.78-.6,1.5-.9,2.28a10,10,0,0,1-1,2,8.75,8.75,0,0,1-3.42,3,4.85,4.85,0,0,1-3.12.36,2.29,2.29,0,0,1-1.8-2.52V64.25a4.85,4.85,0,0,0,2-.48,2.46,2.46,0,0,0,1.5-1.5l1.2-3.06a4.72,4.72,0,0,1-3.66-2.94l-8.94-25.08a2.14,2.14,0,0,1,0-1.92,1.79,1.79,0,0,1,1.74-.84h3.78l8.94,25.2h.06l8.16-22.92a3.15,3.15,0,0,1,3.18-2.28Z" transform="translate(-20.91 -17.51)"/>
    <path class="cls-1" d="M339.86,29a13,13,0,0,1,3.78,3.18,8.91,8.91,0,0,1,1.68,5.28,8.87,8.87,0,0,1-1,4.5,9.11,9.11,0,0,1-2.58,2.88,10.87,10.87,0,0,1-3.66,1.74,13.74,13.74,0,0,1-4,.54h-7.32a5.54,5.54,0,0,1-1.14-.06,2.38,2.38,0,0,1-1-.48v2.52a3.83,3.83,0,0,0,2.16,3.42,8.57,8.57,0,0,0,4.14,1.2,12.2,12.2,0,0,0,4.38-.3,6.36,6.36,0,0,0,3.66-2q1.35-1.62,3.6-.54l2.94,1.44a10.75,10.75,0,0,1-2.28,3.36,12.43,12.43,0,0,1-5.16,3.12,17.14,17.14,0,0,1-5.94,1,21.19,21.19,0,0,1-4.68-.48,13.79,13.79,0,0,1-4.38-1.86,9.7,9.7,0,0,1-3.42-4,12.31,12.31,0,0,1-1.08-5.22v-9.9a10.66,10.66,0,0,1,1-4.44,10.44,10.44,0,0,1,5.1-4.92,15.92,15.92,0,0,1,7.08-1.5A18.5,18.5,0,0,1,339.86,29Zm-2.22,11.34a3.25,3.25,0,0,0,.54-5.34,8.92,8.92,0,0,0-4.44-1.5,18.28,18.28,0,0,0-4.62.36,7.26,7.26,0,0,0-3.06,1.44,3.7,3.7,0,0,0-1.38,2.88v2.88h10A5.62,5.62,0,0,0,337.64,40.37Z" transform="translate(-20.91 -17.51)"/>
    <path class="cls-1" d="M350.9,39.11c0-3.6,1.14-6.36,3.48-8.28a10.29,10.29,0,0,1,6.9-2.4h4v2.7c0,2.22-1,3.36-3.12,3.36h-.84A4.21,4.21,0,0,0,357,39.11v19.8h-2.7c-2.22,0-3.36-1.08-3.36-3.18V39.11Z" transform="translate(-20.91 -17.51)"/>
    <path class="cls-1" d="M404.78,35.09a6.22,6.22,0,0,0-4.62-1.56,5.66,5.66,0,0,0-4.44,1.68A7,7,0,0,0,394,40.13V58.91h-2.7c-2.22,0-3.36-1.08-3.36-3.18V40.13a7,7,0,0,0-1.68-4.92,5.83,5.83,0,0,0-4.44-1.68,6.13,6.13,0,0,0-4.62,1.56,7.34,7.34,0,0,0-1.56,5V58.91h-2.7c-2.22,0-3.36-1.08-3.36-3.18V40.13q0-5.76,3.24-9.18c2.16-2.34,5.16-3.48,9-3.48a11.79,11.79,0,0,1,8,2.82,9.21,9.21,0,0,1,1.2,1.14c.42-.42.78-.84,1.14-1.14a13.14,13.14,0,0,1,17,.66q3.24,3.42,3.24,9.18V58.91h-2.7c-2.22,0-3.36-1.08-3.36-3.18V40.13A7.34,7.34,0,0,0,404.78,35.09Z" transform="translate(-20.91 -17.51)"/>
    <path class="cls-1" d="M442.94,31a11.39,11.39,0,0,1,4.5,9.12V58.91h-1.8a3.72,3.72,0,0,1-3.42-2.46,13.25,13.25,0,0,1-9.36,3.36,15.31,15.31,0,0,1-10.08-3.54,11.27,11.27,0,0,1-4.5-9.06V40.13a11.39,11.39,0,0,1,4.5-9.12,15.31,15.31,0,0,1,10.08-3.54A15.53,15.53,0,0,1,442.94,31Zm-10.08,2.52a9.4,9.4,0,0,0-6.24,2.16,5.63,5.63,0,0,0-2.28,4.44v7.08a5.72,5.72,0,0,0,2.28,4.44,10.32,10.32,0,0,0,12.48,0,5.63,5.63,0,0,0,2.28-4.44V40.13a5.63,5.63,0,0,0-2.28-4.44A9.4,9.4,0,0,0,432.86,33.53Z" transform="translate(-20.91 -17.51)"/>
    <path class="cls-1" d="M454.28,39.11c0-3.6,1.14-6.36,3.48-8.28a10.29,10.29,0,0,1,6.9-2.4h4v2.7c0,2.22-1,3.36-3.12,3.36h-.84a4.21,4.21,0,0,0-4.32,4.62v19.8h-2.7c-2.22,0-3.36-1.08-3.36-3.18Z" transform="translate(-20.91 -17.51)"/>
    <path class="cls-1" d="M473.48,20.69c0-2.1,1.14-3.18,3.36-3.18h2.7V41.09h2.22c1.2,0,2.34.06,3.06-1.14l5.7-9.36a4.18,4.18,0,0,1,3.66-2.16h4.74l-7.26,11.88a10.16,10.16,0,0,1-1.2,1.68A9.06,9.06,0,0,1,495,47l5.22,11.88h-3.9c-1.8,0-3-.66-3.54-1.92l-3.3-7.56a3.5,3.5,0,0,0-3.42-2.28h-6.54V58.91h-2.7c-2.22,0-3.36-1.08-3.36-3.18v-35Z" transform="translate(-20.91 -17.51)"/>
    <path class="cls-1" d="M525.08,29a13,13,0,0,1,3.78,3.18,8.91,8.91,0,0,1,1.68,5.28,8.87,8.87,0,0,1-1,4.5,9.11,9.11,0,0,1-2.58,2.88,10.87,10.87,0,0,1-3.66,1.74,13.74,13.74,0,0,1-4,.54H512a5.54,5.54,0,0,1-1.14-.06,2.38,2.38,0,0,1-1-.48v2.52a3.83,3.83,0,0,0,2.16,3.42,8.57,8.57,0,0,0,4.14,1.2,12.2,12.2,0,0,0,4.38-.3,6.36,6.36,0,0,0,3.66-2q1.35-1.62,3.6-.54l2.94,1.44a10.75,10.75,0,0,1-2.28,3.36,12.43,12.43,0,0,1-5.16,3.12,17.14,17.14,0,0,1-5.94,1,21.19,21.19,0,0,1-4.68-.48,13.79,13.79,0,0,1-4.38-1.86,9.7,9.7,0,0,1-3.42-4,12.31,12.31,0,0,1-1.08-5.22v-9.9a10.66,10.66,0,0,1,1-4.44A10.44,10.44,0,0,1,510,29a15.92,15.92,0,0,1,7.08-1.5A18.5,18.5,0,0,1,525.08,29Zm-2.22,11.34A3.25,3.25,0,0,0,523.4,35a8.92,8.92,0,0,0-4.44-1.5,18.28,18.28,0,0,0-4.62.36,7.26,7.26,0,0,0-3.06,1.44,3.7,3.7,0,0,0-1.38,2.88v2.88h10A5.62,5.62,0,0,0,522.86,40.37Z" transform="translate(-20.91 -17.51)"/>
    <path class="cls-1" d="M549.62,28.43v2.7c0,2.22-1.08,3.36-3.18,3.36h-4V49.13a4.53,4.53,0,0,0,1.44,3.6,4.17,4.17,0,0,0,2.82,1v2.76a2.29,2.29,0,0,1-1.8,2.52,4.12,4.12,0,0,1-3.12-.36A8.73,8.73,0,0,1,538,55.31a11.66,11.66,0,0,1-1.56-6.18V20.69c0-2.1,1.08-3.18,3.3-3.18h2.76V28.43Z" transform="translate(-20.91 -17.51)"/>
    <path class="cls-1" d="M558,17.51h2.7v2.88c0,2.1-1.14,3.18-3.36,3.18h-2.7V20.69C554.66,18.59,555.8,17.51,558,17.51Zm-3.36,14.1c0-2.1,1.14-3.18,3.36-3.18h2.7V58.91H558c-2.22,0-3.36-1.08-3.36-3.18Z" transform="translate(-20.91 -17.51)"/>
    <path class="cls-1" d="M572.42,30.89a14.37,14.37,0,0,1,9.6-3.42,14.52,14.52,0,0,1,9.66,3.42,11.22,11.22,0,0,1,4.26,8.7V58.91h-2.7c-2.22,0-3.36-1.08-3.36-3.18V39.59a5.2,5.2,0,0,0-2.1-4.08,9.37,9.37,0,0,0-11.52,0,5.2,5.2,0,0,0-2.1,4.08V58.91h-2.7c-2.22,0-3.36-1.08-3.36-3.18V39.59A10.93,10.93,0,0,1,572.42,30.89Z" transform="translate(-20.91 -17.51)"/>
    <path class="cls-1" d="M626.54,31a11.39,11.39,0,0,1,4.5,9.12V58.61a10.74,10.74,0,0,1-1.14,5,12.23,12.23,0,0,1-7.62,5.94,18.72,18.72,0,0,1-5.28.72,23.8,23.8,0,0,1-4.68-.48,4.39,4.39,0,0,1-2.82-1.56,3.19,3.19,0,0,1-.12-2.52l.54-2.4a14.31,14.31,0,0,0,5.34,1,18.42,18.42,0,0,0,5.34-.6c2.94-.78,4.38-2.52,4.38-5.16v-1.2a16.21,16.21,0,0,1-18.6-1.14,11.27,11.27,0,0,1-4.5-9.06V40.13a11.39,11.39,0,0,1,4.5-9.12,15.31,15.31,0,0,1,10.08-3.54A15.53,15.53,0,0,1,626.54,31Zm-10.08,2.52a9.4,9.4,0,0,0-6.24,2.16,5.63,5.63,0,0,0-2.28,4.44v7.08a5.72,5.72,0,0,0,2.28,4.44,10.32,10.32,0,0,0,12.48,0A5.63,5.63,0,0,0,625,47.21V40.13a5.63,5.63,0,0,0-2.28-4.44A9.4,9.4,0,0,0,616.46,33.53Z" transform="translate(-20.91 -17.51)"/>
    <path class="cls-1" d="M641.78,52.07h2.7v3.66c0,2.1-1.14,3.18-3.36,3.18h-2.7V55.25C638.42,53.15,639.56,52.07,641.78,52.07Z" transform="translate(-20.91 -17.51)"/>
    <path class="cls-1" d="M651,39.59a10.93,10.93,0,0,1,4.32-8.7,14.37,14.37,0,0,1,9.6-3.42,14.52,14.52,0,0,1,9.66,3.42,11.93,11.93,0,0,1,3.54,4.8l-2.64,1.38a3,3,0,0,1-4-.72c-.36-.42-.6-.66-.78-.84a8.88,8.88,0,0,0-5.82-2,8.61,8.61,0,0,0-5.76,2,5.38,5.38,0,0,0-2.1,4.08v8.16a5.2,5.2,0,0,0,2.1,4.08,8.89,8.89,0,0,0,5.76,1.92,9.18,9.18,0,0,0,5.82-1.92c.18-.18.42-.42.78-.84a3,3,0,0,1,4-.72l2.64,1.38a11.93,11.93,0,0,1-3.54,4.8,14.68,14.68,0,0,1-9.66,3.36,14.4,14.4,0,0,1-9.6-3.36,10.85,10.85,0,0,1-4.32-8.7Z" transform="translate(-20.91 -17.51)"/>
    <path class="cls-1" d="M707.23,31a11.39,11.39,0,0,1,4.5,9.12v7.08a11.27,11.27,0,0,1-4.5,9.06,16.11,16.11,0,0,1-20.15,0,11.27,11.27,0,0,1-4.5-9.06V40.13a11.39,11.39,0,0,1,4.5-9.12,15.31,15.31,0,0,1,10.08-3.54A15.51,15.51,0,0,1,707.23,31Zm-10.07,2.52a9.4,9.4,0,0,0-6.24,2.16,5.63,5.63,0,0,0-2.28,4.44v7.08a5.72,5.72,0,0,0,2.28,4.44,10.32,10.32,0,0,0,12.48,0,5.63,5.63,0,0,0,2.28-4.44V40.13a5.63,5.63,0,0,0-2.28-4.44A9.4,9.4,0,0,0,697.16,33.53Z" transform="translate(-20.91 -17.51)"/>
    <path class="cls-1" d="M752.89,35.09a6.22,6.22,0,0,0-4.62-1.56,5.66,5.66,0,0,0-4.44,1.68,7,7,0,0,0-1.74,4.92V58.91h-2.7c-2.22,0-3.35-1.08-3.35-3.18V40.13a7,7,0,0,0-1.68-4.92,5.83,5.83,0,0,0-4.44-1.68,6.13,6.13,0,0,0-4.62,1.56,7.34,7.34,0,0,0-1.56,5V58.91H721c-2.22,0-3.36-1.08-3.36-3.18V40.13q0-5.76,3.24-9.18c2.16-2.34,5.16-3.48,9-3.48a11.79,11.79,0,0,1,8,2.82,9.21,9.21,0,0,1,1.2,1.14c.42-.42.78-.84,1.14-1.14a13.14,13.14,0,0,1,17,.66,12.84,12.84,0,0,1,3.23,9.18V58.91h-2.69c-2.23,0-3.36-1.08-3.36-3.18V40.13A7.39,7.39,0,0,0,752.89,35.09Z" transform="translate(-20.91 -17.51)"/>
  </g>
  <g>
    <path class="cls-1" d="M32.81,39.89c0-2.61-.2-5.19-3.2-5.19-1.83,0-3,.74-3,2.73,0,2.23,1.4,3.08,3.12,4.18a51.23,51.23,0,0,1,6.63,4.79,7.65,7.65,0,0,1,2.45,6.13c0,5.54-3.66,8.42-9,8.42-6.55,0-8.89-3.67-8.89-8.89V49.91h5.46v1.72c-.12,2.85.74,4.91,3.43,4.91,2.3,0,3.4-1.21,3.4-3.43A4.44,4.44,0,0,0,31,49.25c-2.84-2.22-6.39-3.82-8.62-6.75A8.15,8.15,0,0,1,21,38c0-5,2.81-7.72,8.58-7.72,8.7,0,8.46,6.7,8.5,9.59Z" transform="translate(-20.91 -17.51)"/>
    <path class="cls-1" d="M44.94,60.25V31H50.4V60.25Z" transform="translate(-20.91 -17.51)"/>
    <path class="cls-1" d="M55.31,31H73.52v4.29H67.17v25H61.71v-25h-6.4V31Z" transform="translate(-20.91 -17.51)"/>
    <path class="cls-1" d="M78.2,60.25V31H93.57v4.29H83.66v7.37h9.13V47H83.66v9h9.91v4.29Z" transform="translate(-20.91 -17.51)"/>
    <path class="cls-1" d="M110.61,60.25V31h8.82c2.33,0,4.64.16,6.2,2.14a7.9,7.9,0,0,1,1.44,5.27c0,2.53-.55,5-3.51,6.12v.08c3.08.43,4.25,3,4.25,6.79a13.94,13.94,0,0,1-.39,3.58c-1.17,3.71-3.28,5.27-7.18,5.27Zm6.47-17.43c1.33,0,3,.07,3.91-1a5.64,5.64,0,0,0,.58-3.16c0-2.18-.47-3.27-3-3.35h-2.54v7.53ZM117.24,56a8.26,8.26,0,0,0,3.28-.31c1.48-.66,1.67-2.58,1.67-4.06,0-3.16-.62-4.48-4-4.48h-2.11V56Z" transform="translate(-20.91 -17.51)"/>
    <path class="cls-1" d="M140.84,38.68a19.73,19.73,0,0,1,1.28,4.49h.08a24.52,24.52,0,0,1,1.8-5.54L146.61,31h6l-7.73,16.81V60.25h-5.46V47.81L131.79,31h6Z" transform="translate(-20.91 -17.51)"/>
  </g>
</svg>
