<?xml version="1.0" encoding="utf-8"?>
<!-- Generator: Adobe Illustrator 21.1.0, SVG Export Plug-In . SVG Version: 6.00 Build 0)  -->
<svg version="1.1" id="Layer_1" xmlns="http://www.w3.org/2000/svg" xmlns:xlink="http://www.w3.org/1999/xlink" x="0px" y="0px"
	 viewBox="0 0 79.2 84.3" style="enable-background:new 0 0 79.2 84.3;" xml:space="preserve">
<style type="text/css">
	.st0{fill:url(#SVGID_1_);}
</style>
<linearGradient id="SVGID_1_" gradientUnits="userSpaceOnUse" x1="39.6238" y1="0" x2="39.6238" y2="84.3">
	<stop  offset="0" style="stop-color:#C57A55"/>
	<stop  offset="6.329615e-02" style="stop-color:#D28A65"/>
	<stop  offset="0.1441" style="stop-color:#DB9572"/>
	<stop  offset="0.2532" style="stop-color:#E09C79"/>
	<stop  offset="0.51" style="stop-color:#E29E7B"/>
	<stop  offset="0.7567" style="stop-color:#E09C79"/>
	<stop  offset="0.8615" style="stop-color:#DB9572"/>
	<stop  offset="0.9392" style="stop-color:#D28A65"/>
	<stop  offset="1" style="stop-color:#C57A55"/>
</linearGradient>
<path class="st0" d="M48.8,8h-16l8-8L48.8,8z M31.5,9.3l-9.6,9.6h37.8l-9.6-9.6H31.5z M20.6,20.2l-9.6,9.6h59.6L61,20.2H20.6z
	 M71.9,31.2H9.7L0,40.8h30.4v-2.6H79L71.9,31.2z M10.9,53.1l9.7,9.7h40.4l9.7-9.7H10.9z M22,64l9.7,9.7h18.4l9.7-9.7H22z M32.8,74.9
	L41,83l8-8.1H32.8z M30.4,42.1H0l9.7,9.7h62.4l7.1-7.1l-48.9,0.1L30.4,42.1z M57.9,80.3c0-2.2-1.8-4-4-4c-2.3,0-4.1,1.8-4.1,4
	s1.9,4,4.1,4C56.1,84.3,57.9,82.5,57.9,80.3 M50.7,80.3c0-1.8,1.3-3.2,3.1-3.2s3.1,1.4,3.1,3.2s-1.3,3.2-3.1,3.2
	C52,83.6,50.7,82.1,50.7,80.3 M53.1,80.8h0.5c0.5,0,0.7,0.2,0.8,0.7c0.1,0.5,0.2,0.8,0.3,0.9h0.9c-0.1-0.2-0.2-0.4-0.3-0.9
	c-0.1-0.6-0.3-0.8-0.7-0.9v-0.1c0.5-0.2,0.8-0.5,0.8-0.9c0-0.4-0.2-0.7-0.4-0.8c-0.3-0.2-0.7-0.3-1.4-0.3c-0.7,0-1.1,0.1-1.5,0.1v4
	h0.9C53.1,82.5,53.1,80.8,53.1,80.8z M53.2,79c0.1,0,0.3-0.1,0.5-0.1c0.6,0,0.8,0.3,0.8,0.7c0,0.4-0.4,0.6-0.9,0.6h-0.5L53.2,79
	L53.2,79z"/>
</svg>
