<?xml version="1.0" encoding="utf-8"?>
<!-- Generator: Adobe Illustrator 21.1.0, SVG Export Plug-In . SVG Version: 6.00 Build 0)  -->
<svg version="1.1" id="Layer_1" xmlns="http://www.w3.org/2000/svg" xmlns:xlink="http://www.w3.org/1999/xlink" x="0px" y="0px"
	 viewBox="0 0 524.7 90.1" style="enable-background:new 0 0 524.7 90.1;" xml:space="preserve">
<style type="text/css">
	.st0{fill:url(#SVGID_1_);}
</style>
<linearGradient id="SVGID_1_" gradientUnits="userSpaceOnUse" x1="262.3684" y1="90.1369" x2="262.3684" y2="-9.094947e-13">
	<stop  offset="0" style="stop-color:#C57A55"/>
	<stop  offset="6.329615e-02" style="stop-color:#D28A65"/>
	<stop  offset="0.1441" style="stop-color:#DB9572"/>
	<stop  offset="0.2532" style="stop-color:#E09C79"/>
	<stop  offset="0.51" style="stop-color:#E29E7B"/>
	<stop  offset="0.7567" style="stop-color:#E09C79"/>
	<stop  offset="0.8615" style="stop-color:#DB9572"/>
	<stop  offset="0.9392" style="stop-color:#D28A65"/>
	<stop  offset="1" style="stop-color:#C57A55"/>
</linearGradient>
<path class="st0" d="M52.2,8.6H35.1L43.6,0L52.2,8.6z M33.7,9.9L23.4,20.2h40.4L53.5,9.9L33.7,9.9z M22,21.6L11.7,31.9h63.7
	L65.2,21.6H22z M76.9,33.3l-66.5,0L0,43.6h32.5v-2.8h51.9L76.9,33.3z M11.7,56.7l10.4,10.4h43.2l10.4-10.4L11.7,56.7z M23.5,68.4
	l10.4,10.4h19.7L64,68.4L23.5,68.4z M35.1,80l8.7,8.7l8.6-8.7L35.1,80z M32.5,45H0l10.4,10.4h66.7l7.6-7.6l-52.3,0.1L32.5,45z
	 M131.2,53.3c2.5,2.2,5.6,3.4,10.3,3.4c2,0,4.4-0.2,5.6-0.7c0.6-0.3,0.6-0.3,0.8-0.9c0.3-1.1,0.7-3.8,0.7-4c0-0.2-0.1-0.5-0.2-0.5
	c-0.2,0-0.3,0.1-0.3,0.5c-0.1,0.6-0.5,1.9-1.2,2.6c-1.2,1.3-3.1,1.6-5.4,1.6c-6.7,0-11.3-5.5-11.3-11.4c0-3.2,0.5-6,2.8-8.1
	c1.1-1.1,3-2.3,7.2-2.3c2.7,0,5.1,0.8,6.2,1.8c0.8,0.7,1.3,2,1.3,3.2c0,0.4,0,0.7,0.2,0.7c0.2,0,0.3-0.2,0.3-0.7
	c0-0.5,0-2.2,0.1-3.2c0.1-1.1,0.2-1.5,0.2-1.7c0-0.2-0.1-0.3-0.4-0.3c-1-0.1-2-0.2-3.2-0.5c-1.5-0.3-3.3-0.4-4.5-0.4
	c-4.8,0-7.6,1.5-9.5,3.3c-2.8,2.8-3.5,6.4-3.5,8.5C127.4,47,128.2,50.6,131.2,53.3 M158.6,41.7c0-4.9,0-5.7,0.1-6.7
	c0.1-1.1,0.3-1.6,1.2-1.8c0.4-0.1,0.8-0.1,1-0.1c0.1,0,0.2-0.1,0.2-0.2c0-0.2-0.2-0.2-0.5-0.2c-0.9,0-3.2,0.1-3.4,0.1
	c-0.2,0-2.1-0.1-3.5-0.1c-0.3,0-0.5,0.1-0.5,0.2c0,0.1,0.1,0.2,0.2,0.2c0.3,0,0.8,0,1.1,0.1c1,0.2,1.3,0.7,1.3,1.8
	c0.1,1,0.1,1.9,0.1,6.7v5.5c0,3,0,5.5-0.2,6.8c-0.1,0.9-0.3,1.6-0.9,1.7c-0.3,0.1-0.7,0.1-0.9,0.1c-0.2,0-0.2,0.1-0.2,0.2
	c0,0.2,0.2,0.2,0.5,0.2c0.5,0,1.2,0,1.8-0.1c0.6,0,1.2,0,1.3,0c1.8,0,3.9,0.2,8.4,0.2c1.7,0,1.7-0.1,2-0.8c0.2-0.9,0.5-2.8,0.5-3.1
	c0-0.3,0-0.5-0.2-0.5c-0.2,0-0.3,0.2-0.3,0.4c-0.1,0.6-0.4,1.4-0.8,1.9c-0.7,0.9-2.1,0.9-3.8,0.9c-2.4,0-3.2-0.2-3.7-0.7
	c-0.6-0.6-0.7-2.6-0.7-7.1V41.7z M176.5,41.7c0-4.9,0-5.7,0.1-6.7c0.1-1.1,0.3-1.6,1.2-1.8c0.4-0.1,0.6-0.1,0.8-0.1
	c0.1,0,0.3-0.1,0.3-0.2c0-0.2-0.2-0.2-0.5-0.2c-0.9,0-2.9,0.1-3.1,0.1c-0.2,0-2.1-0.1-3.2-0.1c-0.3,0-0.5,0.1-0.5,0.2
	c0,0.1,0.1,0.2,0.2,0.2c0.2,0,0.6,0,1,0.1c0.7,0.2,1,0.7,1.1,1.7c0.1,1,0.1,1.9,0.1,6.7v5.5c0,3,0,5.5-0.2,6.8
	c-0.1,0.9-0.3,1.6-0.9,1.7c-0.3,0.1-0.7,0.1-0.9,0.1c-0.2,0-0.3,0.1-0.3,0.2c0,0.2,0.2,0.2,0.5,0.2c0.9,0,2.9-0.1,3.1-0.1
	c0.2,0,2.1,0.1,3.8,0.1c0.3,0,0.5-0.1,0.5-0.2c0-0.1-0.1-0.2-0.2-0.2c-0.3,0-1-0.1-1.4-0.1c-0.9-0.1-1.1-0.8-1.2-1.7
	c-0.2-1.3-0.2-3.8-0.2-6.8V41.7z M187.6,47.2c0,3,0,5.5-0.2,6.8c-0.1,0.9-0.3,1.6-0.9,1.7c-0.3,0.1-0.7,0.1-0.9,0.1
	c-0.2,0-0.2,0.1-0.2,0.2c0,0.2,0.2,0.2,0.5,0.2c0.9,0,2.9-0.1,3.1-0.1c0.2,0,2.1,0.1,3.8,0.1c0.3,0,0.5-0.1,0.5-0.2
	c0-0.1-0.1-0.2-0.3-0.2c-0.3,0-1-0.1-1.4-0.1c-0.9-0.1-1.1-0.8-1.2-1.7c-0.2-1.3-0.2-3.8-0.2-6.8v-2.7c0-0.2,0.1-0.3,0.2-0.3
	c0.5,0,3.9,0,4.7,0.1c1,0.1,1.5,0.7,1.6,1.1c0.1,0.4,0.2,0.8,0.2,1.1c0,0.2,0.1,0.3,0.2,0.3c0.2,0,0.2-0.3,0.2-0.6
	c0-0.2,0.1-1.5,0.1-2.1c0.1-1,0.2-1.6,0.2-1.7c0-0.2,0-0.3-0.2-0.3c-0.1,0-0.2,0.2-0.3,0.3c-0.3,0.4-0.7,0.5-1.4,0.6
	c-0.4,0-0.9,0-1.4,0l-4,0c-0.2,0-0.2-0.1-0.2-0.3v-8.6c0-0.2,0.1-0.3,0.3-0.3l4.8,0.1c1.2,0,1.9,0.6,2.1,1c0.2,0.4,0.3,0.9,0.3,1.2
	c0,0.2,0.1,0.4,0.2,0.4c0.2,0,0.2-0.2,0.3-0.3c0.1-0.4,0.1-1.7,0.2-2.1c0.1-0.9,0.2-1.2,0.2-1.5c0-0.2-0.1-0.3-0.2-0.3
	c-0.1,0-0.3,0.1-0.4,0.2c-0.3,0.1-0.8,0.1-1.4,0.1c-0.7,0-7.1,0-7.7,0c-0.2,0-2.1-0.1-3.5-0.1c-0.3,0-0.5,0.1-0.5,0.2
	c0,0.1,0.1,0.2,0.2,0.2c0.3,0,0.8,0,1.1,0.1c1,0.2,1.3,0.7,1.3,1.8c0.1,1,0.1,1.9,0.1,6.7V47.2z M205.7,47.2c0,3,0,5.5-0.2,6.8
	c-0.1,0.9-0.3,1.6-0.9,1.7c-0.3,0.1-0.7,0.1-0.9,0.1c-0.2,0-0.2,0.1-0.2,0.2c0,0.2,0.2,0.2,0.5,0.2c0.9,0,2.9-0.1,3.1-0.1
	c0.2,0,2.1,0.1,3.8,0.1c0.3,0,0.5-0.1,0.5-0.2c0-0.1-0.1-0.2-0.2-0.2c-0.3,0-1-0.1-1.4-0.1c-0.9-0.1-1.1-0.8-1.2-1.7
	c-0.2-1.3-0.2-3.8-0.2-6.8v-2.7c0-0.2,0.1-0.3,0.2-0.3c0.5,0,3.9,0,4.7,0.1c1,0.1,1.5,0.7,1.6,1.1c0.1,0.4,0.2,0.8,0.2,1.1
	c0,0.2,0.1,0.3,0.2,0.3c0.2,0,0.2-0.3,0.2-0.6c0-0.2,0.1-1.5,0.1-2.1c0.1-1,0.2-1.6,0.2-1.7c0-0.2,0-0.3-0.2-0.3
	c-0.1,0-0.2,0.2-0.3,0.3c-0.3,0.4-0.7,0.5-1.4,0.6c-0.4,0-0.9,0-1.4,0l-4,0c-0.2,0-0.2-0.1-0.2-0.3v-8.6c0-0.2,0.1-0.3,0.3-0.3
	l4.8,0.1c1.2,0,1.9,0.6,2.1,1c0.2,0.4,0.3,0.9,0.3,1.2c0,0.2,0.1,0.4,0.2,0.4c0.2,0,0.2-0.2,0.3-0.3c0.1-0.4,0.1-1.7,0.2-2.1
	c0.1-0.9,0.2-1.2,0.2-1.5c0-0.2-0.1-0.3-0.2-0.3c-0.1,0-0.3,0.1-0.4,0.2c-0.3,0.1-0.8,0.1-1.4,0.1c-0.7,0-7.1,0-7.7,0
	c-0.2,0-2.1-0.1-3.5-0.1c-0.3,0-0.5,0.1-0.5,0.2c0,0.1,0.1,0.2,0.2,0.2c0.3,0,0.8,0,1.1,0.1c1,0.2,1.3,0.7,1.3,1.8
	c0.1,1,0.1,1.9,0.1,6.7V47.2z M232.6,32.2c-8.6,0-12.3,7.1-12.3,12.2c0,5.6,3.6,12.3,12.1,12.3c7.5,0,12.5-5.8,12.5-12.8
	C244.8,36.6,239.6,32.2,232.6,32.2 M233.2,55.5c-5.6,0-10-4.7-10-12c0-6.8,3.9-10.3,9.1-10.3c4.9,0,9.5,4,9.5,11.5
	C241.8,53.8,236,55.5,233.2,55.5 M250.9,47.2c0,3,0,5.5-0.2,6.8c-0.1,0.9-0.3,1.6-0.9,1.7c-0.3,0.1-0.7,0.1-0.9,0.1
	c-0.2,0-0.3,0.1-0.3,0.2c0,0.2,0.2,0.2,0.5,0.2c0.9,0,2.9-0.1,2.9-0.1c0.2,0,2.1,0.1,3.8,0.1c0.3,0,0.5-0.1,0.5-0.2
	c0-0.1-0.1-0.2-0.2-0.2c-0.3,0-1-0.1-1.4-0.1c-0.9-0.1-1.1-0.8-1.2-1.7c-0.2-1.3-0.2-3.8-0.2-6.8v-0.8c0-0.2,0.1-0.2,0.2-0.2
	l3.8,0.1c0.2,0,0.3,0.1,0.4,0.2c0.6,0.8,2.1,2.9,3.4,4.6c1.8,2.3,2.9,3.9,4.2,4.6c0.8,0.4,1.6,0.6,3.3,0.6h2.2
	c0.6,0,0.7-0.1,0.7-0.2c0-0.1-0.1-0.2-0.3-0.2c-0.2,0-0.6,0-1.2-0.1c-0.8-0.1-2.1-0.5-3.8-2.2c-1.8-1.9-3.9-4.7-6.5-8
	c2.8-2.6,3.8-4.9,3.8-7.2c0-2.2-1.4-3.7-2.2-4.2c-1.7-1.2-3.7-1.4-5.7-1.4c-1,0-3.3,0.1-3.7,0.1c-0.2,0-2.1-0.1-3.5-0.1
	c-0.3,0-0.5,0.1-0.5,0.2c0,0.1,0.1,0.2,0.3,0.2c0.3,0,0.8,0,1.1,0.1c1,0.2,1.3,0.7,1.3,1.8c0.1,1,0.1,1.9,0.1,6.7V47.2z M253.4,34.2
	c0-0.2,0.1-0.3,0.2-0.4c0.3-0.1,1.2-0.2,2.1-0.2c3.3,0,5.4,2.3,5.4,6.2c0,2.4-0.8,4.1-1.9,4.8c-0.7,0.5-1.6,0.6-2.3,0.6
	c-1.4,0-2.8-0.2-3.3-0.5c-0.2-0.1-0.2-0.2-0.2-0.4V34.2z M274.4,47.2c0,3,0,5.5-0.2,6.8c-0.1,0.9-0.3,1.6-0.9,1.7
	c-0.3,0.1-0.7,0.1-0.9,0.1c-0.2,0-0.2,0.1-0.2,0.2c0,0.2,0.2,0.2,0.5,0.2c0.9,0,2.9-0.1,3.1-0.1c0.3,0,4.2,0.4,6.9,0.4
	c5.3,0,8.1-2.2,9.5-3.6c1.7-1.8,3.4-4.9,3.4-8.8c0-3.7-1.5-6.3-3-7.9c-3.7-3.8-9.4-3.6-12.5-3.6c-1.9,0-3.8,0.1-4.2,0.1
	c-0.2,0-2.1-0.1-3.5-0.1c-0.3,0-0.5,0.1-0.5,0.2c0,0.1,0.1,0.2,0.3,0.2c0.3,0,0.8,0,1.1,0.1c1,0.2,1.3,0.7,1.3,1.8
	c0.1,1,0.1,1.9,0.1,6.7V47.2z M277.1,41.2c0-2.4,0-5.6,0-6.6c0-0.3,0.1-0.5,0.4-0.6c0.2-0.1,1.4-0.2,2-0.2c3.7,0,7.3,0.4,10.2,3.5
	c1.3,1.3,3,3.9,3,7.9c0,2.9-0.9,5.9-2.5,7.5c-1.8,1.8-4.5,2.9-7.4,2.9c-3.7,0-4.9-0.7-5.3-1.2c-0.2-0.3-0.3-1.6-0.3-2.4
	c0-0.6-0.1-3.5-0.1-6.8V41.2z M315.4,41.7c0-4.9,0-5.7,0.1-6.7c0.1-1.1,0.3-1.6,1.2-1.8c0.4-0.1,0.8-0.1,1-0.1
	c0.1,0,0.2-0.1,0.2-0.2c0-0.2-0.2-0.2-0.5-0.2c-0.9,0-3.2,0.1-3.4,0.1s-2.1-0.1-3.5-0.1c-0.3,0-0.5,0.1-0.5,0.2
	c0,0.1,0.1,0.2,0.3,0.2c0.3,0,0.8,0,1.1,0.1c1,0.2,1.3,0.7,1.3,1.8c0.1,1,0.1,1.9,0.1,6.7v5.5c0,3,0,5.5-0.2,6.8
	c-0.1,0.9-0.3,1.6-0.9,1.7c-0.3,0.1-0.7,0.1-0.9,0.1c-0.2,0-0.3,0.1-0.3,0.2c0,0.2,0.2,0.2,0.5,0.2c0.5,0,1.2,0,1.8-0.1
	c0.6,0,1.2,0,1.3,0c1.8,0,3.9,0.2,8.4,0.2c1.7,0,1.7-0.1,2-0.8c0.3-0.9,0.5-2.8,0.5-3.1c0-0.3,0-0.5-0.2-0.5c-0.2,0-0.2,0.2-0.3,0.4
	c-0.1,0.6-0.4,1.4-0.8,1.9c-0.7,0.9-2.1,0.9-3.8,0.9c-2.4,0-3.2-0.2-3.7-0.7c-0.6-0.6-0.7-2.6-0.7-7.1V41.7z M329.8,52.8
	c-0.6,1.6-1.2,2.7-2.6,2.9c-0.3,0-0.7,0.1-0.9,0.1c-0.2,0-0.3,0.1-0.3,0.2c0,0.2,0.2,0.2,0.6,0.2c1.5,0,3.2-0.1,3.5-0.1
	c0.3,0,1.7,0.1,2.4,0.1c0.3,0,0.5-0.1,0.5-0.2c0-0.1-0.1-0.2-0.3-0.2h-0.3c-0.5,0-1.2-0.3-1.2-0.9c0-0.6,0.2-1.3,0.4-2.1l1.9-5.5
	c0.1-0.2,0.2-0.2,0.3-0.2h6.7c0.2,0,0.2,0.1,0.3,0.2l2.9,7.7c0.2,0.5,0,0.8-0.2,0.8c-0.1,0-0.2,0.1-0.2,0.2c0,0.2,0.3,0.2,0.9,0.2
	c2.2,0.1,4.4,0.1,4.9,0.1c0.3,0,0.6-0.1,0.6-0.2c0-0.2-0.1-0.2-0.3-0.2c-0.3,0-0.8,0-1.3-0.2c-0.7-0.2-1.6-0.7-2.7-3.5
	c-1.9-4.7-6.8-17.6-7.3-18.8c-0.4-1-0.5-1.1-0.7-1.1c-0.2,0-0.3,0.2-0.7,1.2L329.8,52.8z M334.2,45.9c-0.1,0-0.2-0.1-0.1-0.2
	l2.7-8.4c0.2-0.5,0.3-0.5,0.5,0l3,8.4c0,0.1,0,0.2-0.1,0.2H334.2z M364.4,34.2c-0.4-1.1-0.6-1.5-0.8-1.5c-0.2,0-0.3,0.2-0.8,1.4
	L356.3,52h-0.1c-0.5-1.7-3.7-13.1-4.2-15.1c-0.3-1.4-0.6-2.5-0.6-2.9c0-0.4,0.2-0.7,0.4-0.7c0.4-0.2,1-0.2,1.2-0.2
	c0.2,0,0.3,0,0.3-0.2c0-0.1-0.1-0.2-0.6-0.2c-1.6,0-2.9,0.1-3.2,0.1c-0.3,0-2.1-0.1-3.7-0.1c-0.3,0-0.5,0.1-0.5,0.2
	c0,0.2,0.1,0.2,0.3,0.2c0.2,0,1,0,1.4,0.2c0.8,0.3,1.2,0.8,1.7,2.4l5.6,18.5c0.6,2.1,0.8,2.5,1.1,2.5c0.4,0,0.5-0.3,1-1.7
	c1.1-2.9,5.4-14.3,6.5-17.3h0.1l6.1,17.3c0.4,1.2,0.6,1.6,0.9,1.6c0.3,0,0.5-0.4,1.3-2.7c1.2-3.5,4.4-13.4,5.7-17.4
	c0.6-1.7,1.1-3,2-3.4c0.3-0.1,0.9-0.2,1.1-0.2c0.2,0,0.3-0.1,0.3-0.2c0-0.1-0.2-0.2-0.4-0.2c-1,0-2.3,0.1-2.5,0.1
	c-0.3,0-1.6-0.1-3.2-0.1c-0.4,0-0.5,0.1-0.5,0.2c0,0.1,0.1,0.2,0.3,0.2c1.4,0,1.8,0.4,1.8,0.9c0,0.4,0,0.8-0.3,2
	c-1.1,4-4,13-4.8,15.9h-0.1L364.4,34.2z M403.8,32.2c-8.6,0-12.3,7.1-12.3,12.2c0,5.6,3.6,12.3,12.1,12.3c7.5,0,12.4-5.8,12.4-12.8
	C416.1,36.6,410.9,32.2,403.8,32.2 M404.5,55.5c-5.6,0-10-4.7-10-12c0-6.8,3.9-10.3,9.1-10.3c4.9,0,9.5,4,9.5,11.5
	C413.1,53.8,407.3,55.5,404.5,55.5 M422.4,47.2c0,3,0,5.5-0.2,6.8c-0.1,0.9-0.3,1.6-0.9,1.7c-0.3,0.1-0.7,0.1-0.9,0.1
	c-0.2,0-0.2,0.1-0.2,0.2c0,0.2,0.2,0.2,0.5,0.2c0.9,0,2.9-0.1,3.1-0.1c0.2,0,2.1,0.1,3.8,0.1c0.3,0,0.5-0.1,0.5-0.2
	c0-0.1-0.1-0.2-0.3-0.2c-0.3,0-1-0.1-1.4-0.1c-0.9-0.1-1.1-0.8-1.2-1.7c-0.2-1.3-0.2-3.8-0.2-6.8v-2.7c0-0.2,0.1-0.3,0.2-0.3
	c0.5,0,3.9,0,4.7,0.1c1,0.1,1.5,0.7,1.6,1.1c0.1,0.4,0.2,0.8,0.2,1.1c0,0.2,0.1,0.3,0.2,0.3c0.2,0,0.2-0.3,0.2-0.6
	c0-0.2,0.1-1.5,0.1-2.1c0.1-1,0.2-1.6,0.2-1.7c0-0.2,0-0.3-0.2-0.3c-0.1,0-0.2,0.2-0.3,0.3c-0.3,0.4-0.7,0.5-1.4,0.6
	c-0.4,0-0.9,0-1.4,0l-4,0c-0.2,0-0.2-0.1-0.2-0.3v-8.6c0-0.2,0.1-0.3,0.3-0.3l4.8,0.1c1.2,0,1.9,0.6,2.1,1c0.2,0.4,0.3,0.9,0.3,1.2
	c0,0.2,0.1,0.4,0.2,0.4c0.2,0,0.2-0.2,0.3-0.3c0.1-0.4,0.1-1.7,0.2-2.1c0.1-0.9,0.2-1.2,0.2-1.5c0-0.2-0.1-0.3-0.2-0.3
	c-0.1,0-0.2,0.1-0.4,0.2c-0.3,0.1-0.8,0.1-1.4,0.1c-0.7,0-7.1,0-7.7,0c-0.2,0-2.1-0.1-3.5-0.1c-0.3,0-0.5,0.1-0.5,0.2
	c0,0.1,0.1,0.2,0.2,0.2c0.3,0,0.8,0,1.1,0.1c1,0.2,1.3,0.7,1.3,1.8c0.1,1,0.1,1.9,0.1,6.7V47.2z M440.7,47.2c0,3,0,5.5-0.2,6.8
	c-0.1,0.9-0.3,1.6-0.9,1.7c-0.3,0.1-0.7,0.1-0.9,0.1c-0.2,0-0.2,0.1-0.2,0.2c0,0.2,0.2,0.2,0.5,0.2c0.9,0,2.9-0.1,3.1-0.1
	c0.2,0,2.1,0.1,3.8,0.1c0.3,0,0.5-0.1,0.5-0.2c0-0.1-0.1-0.2-0.2-0.2c-0.3,0-1-0.1-1.4-0.1c-0.9-0.1-1.1-0.8-1.2-1.7
	c-0.2-1.3-0.2-3.8-0.2-6.8v-2.7c0-0.2,0.1-0.3,0.2-0.3c0.5,0,3.9,0,4.7,0.1c1,0.1,1.5,0.7,1.6,1.1c0.1,0.4,0.2,0.8,0.2,1.1
	c0,0.2,0.1,0.3,0.2,0.3c0.2,0,0.2-0.3,0.2-0.6c0-0.2,0.1-1.5,0.1-2.1c0.1-1,0.2-1.6,0.2-1.7c0-0.2,0-0.3-0.2-0.3
	c-0.1,0-0.2,0.2-0.3,0.3c-0.3,0.4-0.7,0.5-1.4,0.6c-0.4,0-0.9,0-1.4,0l-4,0c-0.2,0-0.2-0.1-0.2-0.3v-8.6c0-0.2,0.1-0.3,0.3-0.3
	l4.8,0.1c1.2,0,1.9,0.6,2.1,1c0.2,0.4,0.3,0.9,0.3,1.2c0,0.2,0.1,0.4,0.2,0.4c0.2,0,0.2-0.2,0.3-0.3c0.1-0.4,0.1-1.7,0.2-2.1
	c0.1-0.9,0.2-1.2,0.2-1.5c0-0.2-0.1-0.3-0.2-0.3c-0.1,0-0.2,0.1-0.4,0.2c-0.3,0.1-0.8,0.1-1.4,0.1c-0.7,0-7.1,0-7.7,0
	c-0.2,0-2.1-0.1-3.5-0.1c-0.3,0-0.5,0.1-0.5,0.2c0,0.1,0.1,0.2,0.3,0.2c0.3,0,0.8,0,1.1,0.1c1,0.2,1.3,0.7,1.3,1.8
	c0.1,1,0.1,1.9,0.1,6.7V47.2z M461.4,41.7c0-4.9,0-5.7,0.1-6.7c0.1-1.1,0.3-1.6,1.2-1.8c0.4-0.1,0.6-0.1,0.8-0.1
	c0.1,0,0.2-0.1,0.2-0.2c0-0.2-0.2-0.2-0.5-0.2c-0.9,0-2.9,0.1-3.1,0.1c-0.2,0-2.1-0.1-3.2-0.1c-0.3,0-0.5,0.1-0.5,0.2
	c0,0.1,0.1,0.2,0.2,0.2c0.2,0,0.6,0,1,0.1c0.7,0.2,1,0.7,1.1,1.7c0.1,1,0.1,1.9,0.1,6.7v5.5c0,3,0,5.5-0.2,6.8
	c-0.1,0.9-0.3,1.6-0.9,1.7c-0.3,0.1-0.7,0.1-0.9,0.1c-0.2,0-0.2,0.1-0.2,0.2c0,0.2,0.2,0.2,0.5,0.2c0.9,0,2.9-0.1,3.1-0.1
	c0.2,0,2.1,0.1,3.8,0.1c0.3,0,0.5-0.1,0.5-0.2c0-0.1-0.1-0.2-0.3-0.2c-0.3,0-1-0.1-1.4-0.1c-0.9-0.1-1.1-0.8-1.2-1.7
	c-0.2-1.3-0.2-3.8-0.2-6.8V41.7z M471.9,53.3c2.5,2.2,5.6,3.4,10.3,3.4c2,0,4.4-0.2,5.6-0.7c0.6-0.3,0.6-0.3,0.8-0.9
	c0.3-1.1,0.7-3.8,0.7-4c0-0.2-0.1-0.5-0.2-0.5c-0.2,0-0.3,0.1-0.3,0.5c-0.1,0.6-0.5,1.9-1.2,2.6c-1.2,1.3-3.1,1.6-5.4,1.6
	c-6.7,0-11.3-5.5-11.3-11.4c0-3.2,0.5-6,2.8-8.1c1.1-1.1,3-2.3,7.2-2.3c2.7,0,5.2,0.8,6.2,1.8c0.8,0.7,1.3,2,1.3,3.2
	c0,0.4,0,0.7,0.2,0.7c0.2,0,0.3-0.2,0.3-0.7c0-0.5,0-2.2,0.1-3.2c0.1-1.1,0.2-1.5,0.2-1.7c0-0.2-0.1-0.3-0.4-0.3
	c-1-0.1-2-0.2-3.2-0.5c-1.5-0.3-3.3-0.4-4.5-0.4c-4.8,0-7.6,1.5-9.5,3.3c-2.8,2.8-3.5,6.4-3.5,8.5C468.1,47,468.9,50.6,471.9,53.3
	 M496.4,47.2c0,3,0,5.5-0.2,6.8c-0.1,0.9-0.3,1.6-0.9,1.7c-0.3,0.1-0.7,0.1-0.9,0.1c-0.2,0-0.2,0.1-0.2,0.2c0,0.2,0.2,0.2,0.5,0.2
	c0.5,0,1.2,0,1.8-0.1c0.7,0,1.2,0,1.2,0c0.9,0,3,0.2,7.7,0.2c1.2,0,1.5,0,1.7-0.8c0.2-0.7,0.4-2.8,0.4-3c0-0.2,0-0.5-0.2-0.5
	c-0.2,0-0.2,0.1-0.3,0.5c-0.2,1.3-0.6,1.9-1.4,2.2c-0.8,0.3-2.2,0.3-3,0.3c-3.1,0-3.5-0.4-3.6-2.6c0-0.7,0-4.3,0-5.3v-2.7
	c0-0.1,0.1-0.2,0.2-0.2c0.5,0,3.6,0.1,4.5,0.2c1.2,0.1,1.5,0.7,1.6,1.1c0.1,0.4,0.1,0.7,0.1,1c0,0.2,0.1,0.3,0.2,0.3
	c0.2,0,0.2-0.3,0.2-0.6c0-0.2,0.1-1.4,0.1-2c0.1-1,0.3-1.6,0.3-1.7c0-0.2-0.1-0.3-0.2-0.3c-0.1,0-0.3,0.2-0.5,0.4
	c-0.3,0.3-0.7,0.4-1.5,0.4c-0.7,0.1-4.6,0.1-5,0.1c-0.2,0-0.2-0.1-0.2-0.3v-8.6c0-0.2,0.1-0.3,0.2-0.3c0.3,0,3.7,0,4.3,0.1
	c1.7,0.2,2,0.6,2.2,1.1c0.2,0.4,0.2,0.9,0.2,1.1c0,0.3,0.1,0.4,0.2,0.4c0.1,0,0.2-0.2,0.2-0.3c0.1-0.4,0.1-1.7,0.2-2.1
	c0.1-0.9,0.2-1.2,0.2-1.5c0-0.2,0-0.3-0.1-0.3c-0.2,0-0.3,0.1-0.4,0.2c-0.2,0.1-0.7,0.1-1.3,0.2c-0.7,0-6.9,0-7.1,0
	c-0.2,0-2.1-0.1-3.5-0.1c-0.3,0-0.5,0.1-0.5,0.2c0,0.1,0.1,0.2,0.3,0.2c0.3,0,0.8,0,1.1,0.1c1,0.2,1.3,0.7,1.3,1.8
	c0.1,1,0.1,1.9,0.1,6.7V47.2z M513.2,55.8c1.3,0.6,2.7,0.8,4.2,0.8c1.7,0,3.4-0.4,4.7-1.3c2.2-1.5,2.6-3.9,2.6-5.2
	c0-2.5-0.9-4.4-4.6-7.3l-0.9-0.7c-2.9-2.4-3.8-3.5-3.8-5.2c0-2.3,1.7-3.6,3.8-3.6c2.9,0,3.7,1.3,3.9,1.7c0.2,0.3,0.4,1.2,0.4,1.6
	c0,0.2,0.1,0.4,0.2,0.4c0.2,0,0.2-0.2,0.2-0.7c0-2.1,0.1-3.2,0.1-3.3c0-0.2-0.1-0.2-0.3-0.2c-0.3,0-0.5,0-1.1-0.2
	c-0.8-0.2-1.7-0.3-2.9-0.3c-4,0-6.5,2.3-6.5,5.6c0,2.1,0.7,4.1,4.1,6.8l1.4,1.2c2.7,2.2,3.6,3.5,3.6,5.6c0,2-1.5,4.1-4.5,4.1
	c-2.1,0-4.1-0.9-4.6-3.2c-0.1-0.4-0.1-0.9-0.1-1.2c0-0.2,0-0.3-0.2-0.3c-0.2,0-0.2,0.2-0.2,0.5c0,0.5-0.2,1.7-0.2,3.3
	C512.7,55.5,512.8,55.6,513.2,55.8 M61.9,85.8c0-2.4-1.9-4.3-4.3-4.3c-2.5,0-4.4,1.9-4.4,4.3c0,2.4,2,4.3,4.4,4.3
	C60,90.1,61.9,88.2,61.9,85.8 M54.2,85.8c0-1.9,1.4-3.4,3.3-3.4c1.9,0,3.3,1.5,3.3,3.4c0,1.9-1.4,3.4-3.3,3.4
	C55.6,89.3,54.2,87.7,54.2,85.8 M56.8,86.4h0.5c0.5,0,0.8,0.2,0.9,0.7c0.1,0.5,0.2,0.9,0.3,1h1c-0.1-0.2-0.2-0.4-0.3-1
	c-0.1-0.6-0.3-0.9-0.8-1v-0.1c0.5-0.2,0.9-0.5,0.9-1c0-0.4-0.2-0.7-0.4-0.9c-0.3-0.2-0.7-0.3-1.5-0.3c-0.7,0-1.2,0.1-1.6,0.1v4.3h1
	V86.4z M56.9,84.4c0.1,0,0.3-0.1,0.5-0.1c0.6,0,0.9,0.3,0.9,0.7c0,0.4-0.4,0.6-1,0.6h-0.5V84.4z M302.2,36.3c0-1.4-1.1-2.5-2.5-2.5
	c-1.4,0-2.6,1.1-2.6,2.5c0,1.4,1.1,2.5,2.6,2.5C301.1,38.8,302.2,37.7,302.2,36.3 M297.7,36.3c0-1.1,0.8-2,1.9-2
	c1.1,0,1.9,0.9,1.9,2c0,1.1-0.8,2-1.9,2C298.6,38.3,297.7,37.4,297.7,36.3 M299.3,36.6h0.3c0.3,0,0.5,0.1,0.5,0.4
	c0.1,0.3,0.1,0.5,0.2,0.6h0.6c0-0.1-0.1-0.2-0.2-0.6c-0.1-0.3-0.2-0.5-0.4-0.6v0c0.3-0.1,0.5-0.3,0.5-0.6c0-0.2-0.1-0.4-0.3-0.5
	c-0.2-0.1-0.4-0.2-0.9-0.2c-0.4,0-0.7,0-1,0.1v2.5h0.6V36.6z M299.3,35.5c0.1,0,0.2,0,0.3,0c0.4,0,0.5,0.2,0.5,0.4
	c0,0.3-0.3,0.4-0.6,0.4h-0.3V35.5z"/>
</svg>
