<svg id="Layer_1" data-name="Layer 1" xmlns="http://www.w3.org/2000/svg" xmlns:xlink="http://www.w3.org/1999/xlink" viewBox="0 0 397.3 24.5">
  <defs>
    <style>
      .cls-1 {
        fill: url(#linear-gradient);
      }
    </style>
    <linearGradient id="linear-gradient" x1="205.05" y1="12.3" x2="205.05" y2="36.8" gradientTransform="matrix(1, 0, 0, -1, 0, 46)" gradientUnits="userSpaceOnUse">
      <stop offset="0" stop-color="#c57a55"/>
      <stop offset="0.06" stop-color="#d28a65"/>
      <stop offset="0.14" stop-color="#db9572"/>
      <stop offset="0.25" stop-color="#e09c79"/>
      <stop offset="0.51" stop-color="#e29e7b"/>
      <stop offset="0.76" stop-color="#e09c79"/>
      <stop offset="0.86" stop-color="#db9572"/>
      <stop offset="0.94" stop-color="#d28a65"/>
      <stop offset="1" stop-color="#c57a55"/>
    </linearGradient>
  </defs>
  <title>logo-mobile</title>
  <path class="cls-1" d="M10.2,30.3c2.5,2.2,5.6,3.4,10.3,3.4a17.78,17.78,0,0,0,5.6-.7c.6-.3.6-.3.8-.9a38,38,0,0,0,.7-4c0-.2-.1-.5-.2-.5s-.3.1-.3.5a5.49,5.49,0,0,1-1.2,2.6c-1.2,1.3-3.1,1.6-5.4,1.6A11.3,11.3,0,0,1,9.2,20.9c0-3.2.5-6,2.8-8.1,1.1-1.1,3-2.3,7.2-2.3,2.7,0,5.1.8,6.2,1.8a4.45,4.45,0,0,1,1.3,3.2c0,.4,0,.7.2.7s.3-.2.3-.7,0-2.2.1-3.2.2-1.5.2-1.7-.1-.3-.4-.3a21,21,0,0,1-3.2-.5,25,25,0,0,0-4.5-.4c-4.8,0-7.6,1.5-9.5,3.3a12.34,12.34,0,0,0-3.5,8.5,12,12,0,0,0,3.8,9.1M37.6,18.7c0-4.9,0-5.7.1-6.7s.3-1.6,1.2-1.8a4.14,4.14,0,0,1,1-.1.22.22,0,0,0,.2-.2c0-.2-.2-.2-.5-.2-.9,0-3.2.1-3.4.1s-2.1-.1-3.5-.1c-.3,0-.5.1-.5.2a.22.22,0,0,0,.2.2,4.1,4.1,0,0,1,1.1.1c1,.2,1.3.7,1.3,1.8s.1,1.9.1,6.7v5.5a59.63,59.63,0,0,1-.2,6.8c-.1.9-.3,1.6-.9,1.7a3.08,3.08,0,0,1-.9.1c-.2,0-.2.1-.2.2s.2.2.5.2a11.48,11.48,0,0,0,1.8-.1h1.3c1.8,0,3.9.2,8.4.2,1.7,0,1.7-.1,2-.8.2-.9.5-2.8.5-3.1s0-.5-.2-.5-.3.2-.3.4a4.55,4.55,0,0,1-.8,1.9c-.7.9-2.1.9-3.8.9-2.4,0-3.2-.2-3.7-.7s-.7-2.6-.7-7.1V18.7Zm17.9,0c0-4.9,0-5.7.1-6.7s.3-1.6,1.2-1.8a2.81,2.81,0,0,1,.8-.1c.1,0,.3-.1.3-.2s-.2-.2-.5-.2c-.9,0-2.9.1-3.1.1s-2.1-.1-3.2-.1c-.3,0-.5.1-.5.2a.22.22,0,0,0,.2.2,4.14,4.14,0,0,1,1,.1c.7.2,1,.7,1.1,1.7s.1,1.9.1,6.7v5.5a59.63,59.63,0,0,1-.2,6.8c-.1.9-.3,1.6-.9,1.7a3.08,3.08,0,0,1-.9.1c-.2,0-.3.1-.3.2s.2.2.5.2c.9,0,2.9-.1,3.1-.1s2.1.1,3.8.1c.3,0,.5-.1.5-.2a.22.22,0,0,0-.2-.2c-.3,0-1-.1-1.4-.1-.9-.1-1.1-.8-1.2-1.7a59.63,59.63,0,0,1-.2-6.8V18.7Zm11.1,5.5a59.63,59.63,0,0,1-.2,6.8c-.1.9-.3,1.6-.9,1.7a3.08,3.08,0,0,1-.9.1c-.2,0-.2.1-.2.2s.2.2.5.2c.9,0,2.9-.1,3.1-.1s2.1.1,3.8.1c.3,0,.5-.1.5-.2s-.1-.2-.3-.2-1-.1-1.4-.1c-.9-.1-1.1-.8-1.2-1.7a59.63,59.63,0,0,1-.2-6.8V21.5c0-.2.1-.3.2-.3.5,0,3.9,0,4.7.1a1.73,1.73,0,0,1,1.6,1.1,5.16,5.16,0,0,1,.2,1.1c0,.2.1.3.2.3s.2-.3.2-.6.1-1.5.1-2.1c.1-1,.2-1.6.2-1.7s0-.3-.2-.3-.2.2-.3.3c-.3.4-.7.5-1.4.6H69.3c-.2,0-.2-.1-.2-.3V11.1a.27.27,0,0,1,.3-.3l4.8.1a2.32,2.32,0,0,1,2.1,1,3,3,0,0,1,.3,1.2c0,.2.1.4.2.4s.2-.2.3-.3c.1-.4.1-1.7.2-2.1.1-.9.2-1.2.2-1.5s-.1-.3-.2-.3a.76.76,0,0,0-.4.2,5.31,5.31,0,0,1-1.4.1H67.8c-.2,0-2.1-.1-3.5-.1-.3,0-.5.1-.5.2a.22.22,0,0,0,.2.2,4.1,4.1,0,0,1,1.1.1c1,.2,1.3.7,1.3,1.8s.1,1.9.1,6.7v5.7Zm18.1,0a59.63,59.63,0,0,1-.2,6.8c-.1.9-.3,1.6-.9,1.7a3.08,3.08,0,0,1-.9.1c-.2,0-.2.1-.2.2s.2.2.5.2c.9,0,2.9-.1,3.1-.1s2.1.1,3.8.1c.3,0,.5-.1.5-.2a.22.22,0,0,0-.2-.2c-.3,0-1-.1-1.4-.1-.9-.1-1.1-.8-1.2-1.7a59.63,59.63,0,0,1-.2-6.8V21.5c0-.2.1-.3.2-.3.5,0,3.9,0,4.7.1a1.73,1.73,0,0,1,1.6,1.1,5.16,5.16,0,0,1,.2,1.1c0,.2.1.3.2.3s.2-.3.2-.6.1-1.5.1-2.1c.1-1,.2-1.6.2-1.7s0-.3-.2-.3-.2.2-.3.3c-.3.4-.7.5-1.4.6H87.5c-.2,0-.2-.1-.2-.3V11.1a.27.27,0,0,1,.3-.3l4.8.1a2.32,2.32,0,0,1,2.1,1,3,3,0,0,1,.3,1.2c0,.2.1.4.2.4s.2-.2.3-.3c.1-.4.1-1.7.2-2.1.1-.9.2-1.2.2-1.5s-.1-.3-.2-.3a.76.76,0,0,0-.4.2,5.31,5.31,0,0,1-1.4.1H86c-.2,0-2.1-.1-3.5-.1-.3,0-.5.1-.5.2a.22.22,0,0,0,.2.2,4.1,4.1,0,0,1,1.1.1c1,.2,1.3.7,1.3,1.8s.1,1.9.1,6.7v5.7Zm26.9-15c-8.6,0-12.3,7.1-12.3,12.2,0,5.6,3.6,12.3,12.1,12.3,7.5,0,12.5-5.8,12.5-12.8-.1-7.3-5.3-11.7-12.3-11.7m.6,23.3c-5.6,0-10-4.7-10-12,0-6.8,3.9-10.3,9.1-10.3,4.9,0,9.5,4,9.5,11.5,0,9.1-5.8,10.8-8.6,10.8m17.7-8.3a59.63,59.63,0,0,1-.2,6.8c-.1.9-.3,1.6-.9,1.7a3.08,3.08,0,0,1-.9.1c-.2,0-.3.1-.3.2s.2.2.5.2c.9,0,2.9-.1,2.9-.1.2,0,2.1.1,3.8.1.3,0,.5-.1.5-.2a.22.22,0,0,0-.2-.2c-.3,0-1-.1-1.4-.1-.9-.1-1.1-.8-1.2-1.7a59.63,59.63,0,0,1-.2-6.8v-.8c0-.2.1-.2.2-.2l3.8.1a.52.52,0,0,1,.4.2c.6.8,2.1,2.9,3.4,4.6,1.8,2.3,2.9,3.9,4.2,4.6a6.65,6.65,0,0,0,3.3.6h2.2c.6,0,.7-.1.7-.2s-.1-.2-.3-.2a6.82,6.82,0,0,1-1.2-.1,6.58,6.58,0,0,1-3.8-2.2c-1.8-1.9-3.9-4.7-6.5-8,2.8-2.6,3.8-4.9,3.8-7.2a5.14,5.14,0,0,0-2.2-4.2,9.52,9.52,0,0,0-5.7-1.4c-1,0-3.3.1-3.7.1-.2,0-2.1-.1-3.5-.1-.3,0-.5.1-.5.2s.1.2.3.2a4.1,4.1,0,0,1,1.1.1c1,.2,1.3.7,1.3,1.8s.1,1.9.1,6.7v5.4Zm2.5-13a.52.52,0,0,1,.2-.4,9.1,9.1,0,0,1,2.1-.2c3.3,0,5.4,2.3,5.4,6.2,0,2.4-.8,4.1-1.9,4.8a4,4,0,0,1-2.3.6,8.38,8.38,0,0,1-3.3-.5c-.2-.1-.2-.2-.2-.4V11.2Zm21,13a59.63,59.63,0,0,1-.2,6.8c-.1.9-.3,1.6-.9,1.7a3.08,3.08,0,0,1-.9.1c-.2,0-.2.1-.2.2s.2.2.5.2c.9,0,2.9-.1,3.1-.1s4.2.4,6.9.4c5.3,0,8.1-2.2,9.5-3.6a13,13,0,0,0,3.4-8.8,11.32,11.32,0,0,0-3-7.9c-3.7-3.8-9.4-3.6-12.5-3.6-1.9,0-3.8.1-4.2.1-.2,0-2.1-.1-3.5-.1-.3,0-.5.1-.5.2s.1.2.3.2a4.1,4.1,0,0,1,1.1.1c1,.2,1.3.7,1.3,1.8s.1,1.9.1,6.7v5.6Zm2.7-6V11.6a.55.55,0,0,1,.4-.6,9.49,9.49,0,0,1,2-.2c3.7,0,7.3.4,10.2,3.5a11,11,0,0,1,3,7.9c0,2.9-.9,5.9-2.5,7.5a10.51,10.51,0,0,1-7.4,2.9c-3.7,0-4.9-.7-5.3-1.2a7.38,7.38,0,0,1-.3-2.4c0-.6-.1-3.5-.1-6.8v-4Zm38.3.5c0-4.9,0-5.7.1-6.7s.3-1.6,1.2-1.8a4.14,4.14,0,0,1,1-.1.22.22,0,0,0,.2-.2c0-.2-.2-.2-.5-.2-.9,0-3.2.1-3.4.1s-2.1-.1-3.5-.1c-.3,0-.5.1-.5.2s.1.2.3.2a4.1,4.1,0,0,1,1.1.1c1,.2,1.3.7,1.3,1.8s.1,1.9.1,6.7v5.5a59.63,59.63,0,0,1-.2,6.8c-.1.9-.3,1.6-.9,1.7a3.08,3.08,0,0,1-.9.1c-.2,0-.3.1-.3.2s.2.2.5.2a11.48,11.48,0,0,0,1.8-.1h1.3c1.8,0,3.9.2,8.4.2,1.7,0,1.7-.1,2-.8a16,16,0,0,0,.5-3.1c0-.3,0-.5-.2-.5s-.2.2-.3.4a4.55,4.55,0,0,1-.8,1.9c-.7.9-2.1.9-3.8.9-2.4,0-3.2-.2-3.7-.7s-.7-2.6-.7-7.1V18.7Zm14.4,11.1c-.6,1.6-1.2,2.7-2.6,2.9-.3,0-.7.1-.9.1s-.3.1-.3.2.2.2.6.2c1.5,0,3.2-.1,3.5-.1s1.7.1,2.4.1c.3,0,.5-.1.5-.2s-.1-.2-.3-.2h-.3c-.5,0-1.2-.3-1.2-.9a9.54,9.54,0,0,1,.4-2.1l1.9-5.5c.1-.2.2-.2.3-.2h6.7c.2,0,.2.1.3.2l2.9,7.7c.2.5,0,.8-.2.8a.22.22,0,0,0-.2.2c0,.2.3.2.9.2,2.2.1,4.4.1,4.9.1.3,0,.6-.1.6-.2s-.1-.2-.3-.2a3.42,3.42,0,0,1-1.3-.2c-.7-.2-1.6-.7-2.7-3.5-1.9-4.7-6.8-17.6-7.3-18.8-.4-1-.5-1.1-.7-1.1s-.3.2-.7,1.2Zm4.4-6.9c-.1,0-.2-.1-.1-.2l2.7-8.4c.2-.5.3-.5.5,0l3,8.4c0,.1,0,.2-.1.2Zm30.2-11.7c-.4-1.1-.6-1.5-.8-1.5s-.3.2-.8,1.4L235.3,29h-.1c-.5-1.7-3.7-13.1-4.2-15.1-.3-1.4-.6-2.5-.6-2.9s.2-.7.4-.7a3,3,0,0,1,1.2-.2c.2,0,.3,0,.3-.2s-.1-.2-.6-.2c-1.6,0-2.9.1-3.2.1s-2.1-.1-3.7-.1c-.3,0-.5.1-.5.2s.1.2.3.2a3.9,3.9,0,0,1,1.4.2c.8.3,1.2.8,1.7,2.4l5.6,18.5c.6,2.1.8,2.5,1.1,2.5s.5-.3,1-1.7c1.1-2.9,5.4-14.3,6.5-17.3h.1L248.1,32c.4,1.2.6,1.6.9,1.6s.5-.4,1.3-2.7c1.2-3.5,4.4-13.4,5.7-17.4.6-1.7,1.1-3,2-3.4a5.16,5.16,0,0,1,1.1-.2c.2,0,.3-.1.3-.2s-.2-.2-.4-.2c-1,0-2.3.1-2.5.1s-1.6-.1-3.2-.1c-.4,0-.5.1-.5.2s.1.2.3.2c1.4,0,1.8.4,1.8.9a7,7,0,0,1-.3,2c-1.1,4-4,13-4.8,15.9h-.1Zm39.4-2c-8.6,0-12.3,7.1-12.3,12.2,0,5.6,3.6,12.3,12.1,12.3,7.5,0,12.4-5.8,12.4-12.8.1-7.3-5.1-11.7-12.2-11.7m.7,23.3c-5.6,0-10-4.7-10-12,0-6.8,3.9-10.3,9.1-10.3,4.9,0,9.5,4,9.5,11.5,0,9.1-5.8,10.8-8.6,10.8m17.9-8.3a59.63,59.63,0,0,1-.2,6.8c-.1.9-.3,1.6-.9,1.7a3.08,3.08,0,0,1-.9.1c-.2,0-.2.1-.2.2s.2.2.5.2c.9,0,2.9-.1,3.1-.1s2.1.1,3.8.1c.3,0,.5-.1.5-.2s-.1-.2-.3-.2-1-.1-1.4-.1c-.9-.1-1.1-.8-1.2-1.7a59.63,59.63,0,0,1-.2-6.8V21.5c0-.2.1-.3.2-.3.5,0,3.9,0,4.7.1a1.73,1.73,0,0,1,1.6,1.1,5.16,5.16,0,0,1,.2,1.1c0,.2.1.3.2.3s.2-.3.2-.6.1-1.5.1-2.1c.1-1,.2-1.6.2-1.7s0-.3-.2-.3-.2.2-.3.3c-.3.4-.7.5-1.4.6h-5.4c-.2,0-.2-.1-.2-.3V11.1a.27.27,0,0,1,.3-.3l4.8.1a2.32,2.32,0,0,1,2.1,1,3,3,0,0,1,.3,1.2c0,.2.1.4.2.4s.2-.2.3-.3c.1-.4.1-1.7.2-2.1.1-.9.2-1.2.2-1.5s-.1-.3-.2-.3-.2.1-.4.2a5.31,5.31,0,0,1-1.4.1h-7.7c-.2,0-2.1-.1-3.5-.1-.3,0-.5.1-.5.2a.22.22,0,0,0,.2.2,4.1,4.1,0,0,1,1.1.1c1,.2,1.3.7,1.3,1.8s.1,1.9.1,6.7v5.7Zm18.3,0a59.63,59.63,0,0,1-.2,6.8c-.1.9-.3,1.6-.9,1.7a3.08,3.08,0,0,1-.9.1c-.2,0-.2.1-.2.2s.2.2.5.2c.9,0,2.9-.1,3.1-.1s2.1.1,3.8.1c.3,0,.5-.1.5-.2a.22.22,0,0,0-.2-.2c-.3,0-1-.1-1.4-.1-.9-.1-1.1-.8-1.2-1.7a59.63,59.63,0,0,1-.2-6.8V21.5c0-.2.1-.3.2-.3.5,0,3.9,0,4.7.1a1.73,1.73,0,0,1,1.6,1.1,5.16,5.16,0,0,1,.2,1.1c0,.2.1.3.2.3s.2-.3.2-.6.1-1.5.1-2.1c.1-1,.2-1.6.2-1.7s0-.3-.2-.3-.2.2-.3.3c-.3.4-.7.5-1.4.6h-5.4c-.2,0-.2-.1-.2-.3V11.1a.27.27,0,0,1,.3-.3l4.8.1a2.32,2.32,0,0,1,2.1,1,3,3,0,0,1,.3,1.2c0,.2.1.4.2.4s.2-.2.3-.3c.1-.4.1-1.7.2-2.1.1-.9.2-1.2.2-1.5s-.1-.3-.2-.3-.2.1-.4.2a5.31,5.31,0,0,1-1.4.1H321c-.2,0-2.1-.1-3.5-.1-.3,0-.5.1-.5.2s.1.2.3.2a4.1,4.1,0,0,1,1.1.1c1,.2,1.3.7,1.3,1.8s.1,1.9.1,6.7v5.7Zm20.7-5.5c0-4.9,0-5.7.1-6.7s.3-1.6,1.2-1.8a2.81,2.81,0,0,1,.8-.1.22.22,0,0,0,.2-.2c0-.2-.2-.2-.5-.2-.9,0-2.9.1-3.1.1s-2.1-.1-3.2-.1c-.3,0-.5.1-.5.2a.22.22,0,0,0,.2.2,4.14,4.14,0,0,1,1,.1c.7.2,1,.7,1.1,1.7s.1,1.9.1,6.7v5.5a59.63,59.63,0,0,1-.2,6.8c-.1.9-.3,1.6-.9,1.7a3.08,3.08,0,0,1-.9.1c-.2,0-.2.1-.2.2s.2.2.5.2c.9,0,2.9-.1,3.1-.1s2.1.1,3.8.1c.3,0,.5-.1.5-.2s-.1-.2-.3-.2-1-.1-1.4-.1c-.9-.1-1.1-.8-1.2-1.7a59.63,59.63,0,0,1-.2-6.8Zm10.5,11.6c2.5,2.2,5.6,3.4,10.3,3.4a17.78,17.78,0,0,0,5.6-.7c.6-.3.6-.3.8-.9a38,38,0,0,0,.7-4c0-.2-.1-.5-.2-.5s-.3.1-.3.5a5.49,5.49,0,0,1-1.2,2.6c-1.2,1.3-3.1,1.6-5.4,1.6a11.3,11.3,0,0,1-11.3-11.4c0-3.2.5-6,2.8-8.1,1.1-1.1,3-2.3,7.2-2.3,2.7,0,5.2.8,6.2,1.8a4.45,4.45,0,0,1,1.3,3.2c0,.4,0,.7.2.7s.3-.2.3-.7,0-2.2.1-3.2.2-1.5.2-1.7-.1-.3-.4-.3a21,21,0,0,1-3.2-.5,25,25,0,0,0-4.5-.4c-4.8,0-7.6,1.5-9.5,3.3a12.34,12.34,0,0,0-3.5,8.5,12,12,0,0,0,3.8,9.1m24.5-6.1a59.63,59.63,0,0,1-.2,6.8c-.1.9-.3,1.6-.9,1.7a3.08,3.08,0,0,1-.9.1c-.2,0-.2.1-.2.2s.2.2.5.2a11.48,11.48,0,0,0,1.8-.1h1.2c.9,0,3,.2,7.7.2,1.2,0,1.5,0,1.7-.8a22.74,22.74,0,0,0,.4-3c0-.2,0-.5-.2-.5s-.2.1-.3.5c-.2,1.3-.6,1.9-1.4,2.2a10.21,10.21,0,0,1-3,.3c-3.1,0-3.5-.4-3.6-2.6v-8a.22.22,0,0,1,.2-.2c.5,0,3.6.1,4.5.2,1.2.1,1.5.7,1.6,1.1a3.75,3.75,0,0,1,.1,1c0,.2.1.3.2.3s.2-.3.2-.6.1-1.4.1-2a14.52,14.52,0,0,1,.3-1.7c0-.2-.1-.3-.2-.3s-.3.2-.5.4-.7.4-1.5.4-4.6.1-5,.1c-.2,0-.2-.1-.2-.3V11.2c0-.2.1-.3.2-.3.3,0,3.7,0,4.3.1,1.7.2,2,.6,2.2,1.1a2.56,2.56,0,0,1,.2,1.1c0,.3.1.4.2.4s.2-.2.2-.3c.1-.4.1-1.7.2-2.1.1-.9.2-1.2.2-1.5s0-.3-.1-.3a.52.52,0,0,0-.4.2,9,9,0,0,1-1.3.2h-7.1c-.2,0-2.1-.1-3.5-.1-.3,0-.5.1-.5.2s.1.2.3.2a4.1,4.1,0,0,1,1.1.1c1,.2,1.3.7,1.3,1.8s.1,1.9.1,6.7v5.5Zm16.8,8.6a9.84,9.84,0,0,0,4.2.8,8.32,8.32,0,0,0,4.7-1.3,6.23,6.23,0,0,0,2.6-5.2c0-2.5-.9-4.4-4.6-7.3l-.9-.7c-2.9-2.4-3.8-3.5-3.8-5.2a3.52,3.52,0,0,1,3.8-3.6c2.9,0,3.7,1.3,3.9,1.7a4.19,4.19,0,0,1,.4,1.6c0,.2.1.4.2.4s.2-.2.2-.7c0-2.1.1-3.2.1-3.3s-.1-.2-.3-.2a2.8,2.8,0,0,1-1.1-.2,11.74,11.74,0,0,0-2.9-.3c-4,0-6.5,2.3-6.5,5.6,0,2.1.7,4.1,4.1,6.8l1.4,1.2c2.7,2.2,3.6,3.5,3.6,5.6a4.16,4.16,0,0,1-4.5,4.1c-2.1,0-4.1-.9-4.6-3.2a5.28,5.28,0,0,1-.1-1.2c0-.2,0-.3-.2-.3s-.2.2-.2.5c0,.5-.2,1.7-.2,3.3.2.8.3.9.7,1.1m-211-19.5a2.48,2.48,0,0,0-2.5-2.5,2.56,2.56,0,0,0-2.6,2.5,2.55,2.55,0,0,0,5.1,0m-4.5,0a1.9,1.9,0,1,1,3.8,0,1.92,1.92,0,0,1-1.9,2,2,2,0,0,1-1.9-2m1.6.3h.3c.3,0,.5.1.5.4s.1.5.2.6h.6c0-.1-.1-.2-.2-.6a.92.92,0,0,0-.4-.6h0a.63.63,0,0,0,.5-.6.55.55,0,0,0-.3-.5,1.69,1.69,0,0,0-.9-.2,3.08,3.08,0,0,0-1,.1v2.5h.6V13.6Zm0-1.1h.3c.4,0,.5.2.5.4s-.3.4-.6.4h-.3v-.8Z" transform="translate(-6.4 -9.2)"/>
</svg>
