<svg id="Layer_1" data-name="Layer 1" xmlns="http://www.w3.org/2000/svg" width="730.53" height="602.19" viewBox="0 0 730.53 602.19">
  <title>quotetwo</title>
  <text x="-14.11" y="-14.81"></text>
  <path d="M102,594.29Q67.43,571.6,47.67,538A216.56,216.56,0,0,1,21,464q-6.91-40.47-6.91-74,0-79,24.68-141.18T104,140.18q40.47-46.4,88.84-77t95.76-48.37l9.87,21.71Q249.07,54.29,212.54,80t-61.21,53.31q-24.68,27.64-36.53,54.3T103,232a183.13,183.13,0,0,0,2,25.67,51,51,0,0,0,11.85,25.67q9.87,11.84,30.6,19.74t58.25,7.9q63.18,0,103.65,43.43T349.76,461q0,69.11-48.37,112.55T191.8,617Q136.52,617,102,594.29Zm394.88,0Q462.3,571.6,442.56,538a216.36,216.36,0,0,1-26.66-74Q409,423.51,409,390q0-79,24.68-141.18t65.16-108.59q40.47-46.4,88.85-77t95.75-48.37l9.88,21.71Q643.94,54.29,607.42,80t-61.21,53.31q-24.68,27.64-36.53,54.3T497.84,232a183.13,183.13,0,0,0,2,25.67,51,51,0,0,0,11.85,25.67q9.87,11.84,30.6,19.74t58.25,7.9q63.18,0,103.66,43.43T744.64,461q0,69.11-48.37,112.55T586.69,617Q531.4,617,496.85,594.29Z" transform="translate(-14.11 -14.81)"/>
</svg>
