<svg id="Layer_1" data-name="Layer 1" xmlns="http://www.w3.org/2000/svg" width="84.66" height="187.15" viewBox="0 0 84.66 187.15">
  <defs>
    <style>
      .cls-1 {
        fill: #bb8868;
      }
    </style>
  </defs>
  <title>quote</title>
  <text x="-5.23" y="114.41"></text>
  <path class="cls-1" d="M15.41,70.1a19.56,19.56,0,0,1-6.29-6.52A24.87,24.87,0,0,1,6,55a51.78,51.78,0,0,1-.8-8.58A44,44,0,0,1,8.09,30.06a43.21,43.21,0,0,1,7.55-12.59,47.33,47.33,0,0,1,10.3-8.92A61.19,61.19,0,0,1,37,2.94l1.15,2.52a41.8,41.8,0,0,0-17,11.21A24.49,24.49,0,0,0,16.9,23a13.18,13.18,0,0,0-1.37,5.14,21.47,21.47,0,0,0,.22,3,5.87,5.87,0,0,0,1.38,3,8.33,8.33,0,0,0,3.54,2.29,19.71,19.71,0,0,0,6.75.92,15.71,15.71,0,0,1,12,5,17.5,17.5,0,0,1,4.69,12.36,16.71,16.71,0,0,1-5.61,13,18.48,18.48,0,0,1-12.7,5Q19.42,72.73,15.41,70.1Zm45.77,0a19.69,19.69,0,0,1-6.3-6.52A25.29,25.29,0,0,1,51.79,55a51.78,51.78,0,0,1-.8-8.58,44.19,44.19,0,0,1,2.86-16.36A43.43,43.43,0,0,1,61.4,17.47,47.33,47.33,0,0,1,71.7,8.55,61.59,61.59,0,0,1,82.8,2.94l1.14,2.52a41.57,41.57,0,0,0-10,5,41.1,41.1,0,0,0-7.09,6.17A24.8,24.8,0,0,0,62.66,23a13.36,13.36,0,0,0-1.37,5.14,21.57,21.57,0,0,0,.23,3,5.86,5.86,0,0,0,1.37,3,8.37,8.37,0,0,0,3.55,2.29,19.64,19.64,0,0,0,6.75.92,15.71,15.71,0,0,1,12,5,17.45,17.45,0,0,1,4.69,12.36,16.74,16.74,0,0,1-5.6,13,18.48,18.48,0,0,1-12.7,5C67.32,72.73,63.84,71.86,61.18,70.1Z" transform="translate(-5.23 114.41)"/>
</svg>
