<?xml version="1.0" encoding="utf-8"?>
<!-- Generator: Adobe Illustrator 21.1.0, SVG Export Plug-In . SVG Version: 6.00 Build 0)  -->
<svg version="1.1" id="Icons" xmlns="http://www.w3.org/2000/svg" xmlns:xlink="http://www.w3.org/1999/xlink" x="0px" y="0px"
	 viewBox="0 0 10.3 22.1" style="enable-background:new 0 0 10.3 22.1;" xml:space="preserve">
<style type="text/css">
	.st0{fill:#FFFFFF;}
</style>
<path id="Facebook_3_" class="st0" d="M2.2,4.4c0,0.6,0,3,0,3H0V11h2.2v11h4.7V11h3c0,0,0.3-1.7,0.4-3.7c-0.4,0-3.4,0-3.4,0
	s0-2.1,0-2.5c0-0.4,0.4-0.9,0.9-0.9c0.5,0,1.5,0,2.5,0c0-0.5,0-2.2,0-3.9C9.1,0,7.6,0,6.9,0C2.1,0,2.2,3.8,2.2,4.4z"/>
</svg>
