<svg version="1.1" id="yt" xmlns="http://www.w3.org/2000/svg" xmlns:xlink="http://www.w3.org/1999/xlink" x="0px" y="0px"
	 viewBox="0 0 24.9 29.9" style="enable-background:new 0 0 24.9 29.9;" xml:space="preserve">
<style type="text/css">
	.sm-st0{fill:#FFFFFF;}
</style>
<path id="YouTube_2_" class="sm-st0" d="M21.2,21.9h-1.6l0-0.9c0-0.4,0.3-0.7,0.8-0.7h0.1c0.4,0,0.8,0.3,0.8,0.7L21.2,21.9z M15.1,19.8
	c-0.4,0-0.8,0.3-0.8,0.6v4.6c0,0.3,0.4,0.6,0.8,0.6c0.4,0,0.8-0.3,0.8-0.6v-4.6C15.9,20.1,15.5,19.8,15.1,19.8z M24.9,17.2v8.8
	c0,2.1-1.7,3.8-3.9,3.8H4.2C2,29.9,0,28.2,0,26.1v-8.8c0-2.1,2-3.9,4.2-3.9H21C23.2,13.3,24.9,15.1,24.9,17.2z M5.4,26.9l-0.1-9.2
	l2,0.1v-1.4l-5.3,0v1.4l1.7,0v9.2H5.4z M11.6,19.3H10v4.8c0,0.7,0,1.1-0.1,1.2c-0.1,0.4-0.8,0.8-1,0c0-0.1,0-0.4,0-1.1l0-4.9H7.1
	l0,4.8c0,0.8,0,1.3,0,1.5c0,0.5,0,1,0.4,1.3c0.8,0.6,2.3-0.1,2.6-0.9l0,1l1.4,0V19.3z M17.1,24.8l0-4.1c0-1.6-1.2-2.5-2.8-1.2l0-3.1
	l-1.7,0l0,10.6l1.4,0l0.1-0.7C16,27.9,17.1,26.8,17.1,24.8z M22.6,24.2l-1.3,0c0,0.1,0,0.1,0,0.2v0.7c0,0.4-0.3,0.8-0.7,0.8h-0.3
	c-0.4,0-0.7-0.4-0.7-0.8v-0.1v-0.8v-1h3v-1.1c0-0.8,0-1.6-0.1-2.1c-0.2-1.5-2.3-1.7-3.3-1c-0.3,0.2-0.5,0.6-0.7,1
	c-0.1,0.4-0.2,1-0.2,1.7v2.5C18.3,28.3,23.2,27.8,22.6,24.2z M15.9,10.9c0.1,0.2,0.2,0.4,0.4,0.5c0.2,0.1,0.4,0.2,0.7,0.2
	c0.2,0,0.5-0.1,0.7-0.2c0.2-0.1,0.4-0.4,0.5-0.7l0,0.6h1.8v-8h-1.3v6.3c0,0.3-0.3,0.6-0.7,0.6c-0.3,0-0.7-0.3-0.7-0.6V3.3h-1.7v5.5
	c0,0.7,0.1,1.2,0.1,1.4C15.7,10.4,15.8,10.7,15.9,10.9z M10,6.2c0-0.8,0.1-1.4,0.2-1.8c0.1-0.4,0.4-0.8,0.7-1.1
	c0.3-0.3,0.8-0.4,1.3-0.4c0.4,0,0.8,0.1,1.2,0.3c0.3,0.2,0.6,0.4,0.7,0.7c0.2,0.3,0.3,0.6,0.4,0.9c0.1,0.3,0.1,0.7,0.1,1.3v2.1
	c0,0.8,0,1.3-0.1,1.7c-0.1,0.4-0.2,0.7-0.4,1c-0.2,0.3-0.4,0.5-0.7,0.7c-0.3,0.1-0.7,0.2-1,0.2c-0.4,0-0.8-0.1-1.1-0.2
	c-0.3-0.1-0.5-0.3-0.7-0.6c-0.2-0.3-0.3-0.6-0.4-0.9C10,9.7,10,9.1,10,8.4V6.2z M11.6,9.5c0,0.5,0.2,0.8,0.7,0.8
	c0.4,0,0.7-0.4,0.7-0.8V5.1c0-0.5-0.2-0.8-0.7-0.8c-0.4,0-0.7,0.4-0.7,0.8V9.5z M6.2,11.6H8l0-6.3L10.2,0h-2L7,4L5.9,0h-2l2.3,5.4
	L6.2,11.6z"/>
</svg>
