<svg version="1.1" id="google" xmlns="http://www.w3.org/2000/svg" xmlns:xlink="http://www.w3.org/1999/xlink" x="0px" y="0px"
	 viewBox="0 0 27.4 17.4" style="enable-background:new 0 0 27.4 17.4;" xml:space="preserve">
<style type="text/css">
	.sm-st0{fill:#FFFFFF;}
</style>
<g>
	<path class="sm-st0" d="M0,8.3C0.1,3.8,4.2-0.1,8.7,0c2.1-0.1,4.2,0.8,5.8,2.1c-0.7,0.8-1.4,1.6-2.2,2.3c-2-1.4-4.8-1.8-6.8-0.2
		c-2.8,2-3,6.6-0.2,8.7c2.6,2.4,7.6,1.2,8.4-2.5c-1.7,0-3.3,0-5-0.1c0-1,0-2,0-3c2.8,0,5.5,0,8.3,0c0.2,2.3-0.1,4.8-1.6,6.7
		c-2.2,3-6.5,3.9-9.9,2.6C2.1,15.5-0.3,11.9,0,8.3z"/>
	<path class="sm-st0" d="M22.4,5.1c0.8,0,1.6,0,2.5,0c0,0.6,0.1,1.6,0.1,2.4c0.8,0,1.6-0.1,2.5,0c0,0.8,0,1.6,0,2.5c-0.9,0-1.7,0-2.5,0
		c0,0.8-0.1,1.6-0.1,2.5c-0.8,0-1.6,0-2.5,0c0-0.9-0.1-1.7-0.1-2.5c-0.8,0-1.7,0-2.5,0c0-0.8,0-1.6,0-2.5c0.9,0,1.7,0,2.5,0
		C22.3,6.7,22.4,5.7,22.4,5.1z"/>
</g>
</svg>
