<svg version="1.1" id="onsta" xmlns="http://www.w3.org/2000/svg" xmlns:xlink="http://www.w3.org/1999/xlink" x="0px" y="0px"
	 viewBox="0 0 22.2 22" style="enable-background:new 0 0 22.2 22;" xml:space="preserve">
<style type="text/css">
	.sm-st0{fill:#FFFFFF;}
</style>
<g>
	<path class="sm-st0" d="M2.8,0h16.5c1.6,0,2.9,1.2,2.9,2.8v16.5c0,1.6-1.4,2.7-2.9,2.7H2.8C1.3,22,0,20.8,0,19.3V2.8
		C0,1.2,1.3,0,2.8,0L2.8,0z M19.6,3.5c0-0.6-0.4-1-1-1h-2.5c-0.6,0-1,0.4-1,1V6c0,0.6,0.4,1,1,1h2.5c0.6,0,1-0.4,1-1V3.5z M19.8,9.2
		h-2.1c0.2,0.7,0.3,1.3,0.3,2c0,3.7-3.1,6.7-6.9,6.7c-3.8,0-6.9-3-6.9-6.7c0-0.7,0.1-1.3,0.3-1.9h-2v9.5c0,0.5,0.4,0.9,0.9,0.9h15.5
		c0.5,0,1-0.4,1-0.9V9.2L19.8,9.2z M11.1,6.7c-2.5,0-4.5,1.9-4.5,4.3c0,2.4,2,4.3,4.5,4.3c2.5,0,4.5-1.9,4.5-4.3
		C15.6,8.6,13.6,6.7,11.1,6.7z"/>
</g>
</svg>
