<?xml version="1.0" encoding="utf-8"?>
<!-- Generator: Adobe Illustrator 21.1.0, SVG Export Plug-In . SVG Version: 6.00 Build 0)  -->
<svg version="1.1" id="Icons" xmlns="http://www.w3.org/2000/svg" xmlns:xlink="http://www.w3.org/1999/xlink" x="0px" y="0px"
	 viewBox="0 0 18.8 18" style="enable-background:new 0 0 18.8 18;" xml:space="preserve">
<style type="text/css">
	.st0{fill:#FFFFFF;}
</style>
<path id="LinkedIn_3_" class="st0" d="M18.8,11v7h-4v-6.5c0-1.6-0.6-2.7-2.1-2.7c-1.1,0-1.8,0.7-2.1,1.5c-0.1,0.3-0.2,0.6-0.2,1V18
	H6.5c0,0,0.1-11.1,0-12.1h3.9v1.7c0,0,0.1,0,0.1,0h-0.1v0c0.6-0.8,1.5-2,3.7-2C16.8,5.6,18.8,7.3,18.8,11z M2.3,0C0.9,0,0,0.9,0,2.1
	c0,1.2,0.9,2.1,2.2,2.1h0c1.4,0,2.3-0.9,2.3-2.1C4.5,0.9,3.7,0,2.3,0z M0.2,18h4V5.9h-4V18z"/>
</svg>
